<?xml version="1.0" encoding="UTF-8" standalone="no"?>
<!-- Created with Inkscape (http://www.inkscape.org/) -->

<svg
   version="1.1"
   id="svg5336"
   width="5333.3335"
   height="5333.3335"
   viewBox="0 0 5333.3335 5333.3335"
   xmlns="http://www.w3.org/2000/svg"
   xmlns:svg="http://www.w3.org/2000/svg">
  <defs
     id="defs5340">
    <clipPath
       clipPathUnits="userSpaceOnUse"
       id="clipPath6508">
      <path
         d="M 0,4000 H 4000 V 0 H 0 Z"
         id="path6506" />
    </clipPath>
  </defs>
  <g
     id="g6500"
     transform="matrix(1.3333333,0,0,-1.3333333,-1.9217285e-4,5333.3333)">
    <g
       id="g6502">
      <g
         id="g6504"
         clip-path="url(#clipPath6508)">
        <g
           id="g6510"
           transform="translate(3496.4165,2963.614)">
          <path
             d="m 0,0 c 6.988,-0.584 13.053,-5.679 17.197,-17.879 8.939,-26.392 2.902,-49.408 -5.843,-73.991 -7.206,-20.271 -20.268,-49.765 -6.045,-69.864 21.275,-30.054 189.249,-20.564 149.275,-80.648 -27.758,-41.769 -83.803,-16.895 -113.79,-48.221 -33.864,-35.414 -8.548,-77.572 -13.856,-118.105 -2.094,-15.989 -0.6,-36.173 -17.357,-45.046 -69.667,-36.906 -59.511,97.887 -94.357,116.752 -56.053,30.328 -98.973,-72.605 -162.869,-43.171 -59.929,27.596 52.095,115.127 55.046,145.312 3.336,34.049 -134.4,136.93 -31.464,142.916 35.36,2.052 68.92,-19.951 105.705,-16.526 C -57.829,-102.857 -56.962,4.666 0,0"
             style="fill:#ff147a;fill-opacity:1;fill-rule:nonzero;stroke:none"
             id="path6512" />
        </g>
        <g
           id="g6514"
           transform="translate(3455.822,2732.1821)">
          <path
             d="m 0,0 c -10.704,0.102 -19.293,8.832 -19.198,19.528 0.099,10.675 8.832,19.257 19.531,19.176 C 11.021,38.589 19.61,29.861 19.503,19.181 19.41,8.483 10.674,-0.098 0,0"
             style="fill:#fff3f2;fill-opacity:1;fill-rule:nonzero;stroke:none"
             id="path6516" />
        </g>
        <g
           id="g6518"
           transform="translate(3461.2874,2734.5522)">
          <path
             d="m 0,0 c -6.732,0.062 -12.142,5.57 -12.084,12.309 0.055,6.739 5.572,12.155 12.31,12.097 C 6.969,24.328 12.367,18.837 12.314,12.077 12.254,5.359 6.738,-0.056 0,0"
             style="fill:#422d2d;fill-opacity:1;fill-rule:nonzero;stroke:none"
             id="path6520" />
        </g>
        <g
           id="g6522"
           transform="translate(3453.8564,2681.3101)">
          <path
             d="m 0,0 c -10.665,0.082 -19.257,8.833 -19.159,19.507 0.114,10.687 8.838,19.285 19.532,19.176 C 11.063,38.596 19.63,29.85 19.552,19.165 19.455,8.468 10.702,-0.103 0,0"
             style="fill:#fff3f2;fill-opacity:1;fill-rule:nonzero;stroke:none"
             id="path6524" />
        </g>
        <g
           id="g6526"
           transform="translate(3459.3752,2683.6707)">
          <path
             d="m 0,0 c -6.746,0.051 -12.164,5.552 -12.102,12.318 0.06,6.718 5.576,12.134 12.307,12.073 C 6.944,24.333 12.353,18.825 12.304,12.092 12.232,5.341 6.724,-0.069 0,0"
             style="fill:#422d2d;fill-opacity:1;fill-rule:nonzero;stroke:none"
             id="path6528" />
        </g>
        <g
           id="g6530"
           transform="translate(3540.1711,2729.585)">
          <path
             d="M 0,0 C 3.536,2.491 4.382,7.385 1.88,10.935 -0.611,14.471 -5.504,15.32 -9.04,12.829 -12.6,10.32 -13.447,5.426 -10.955,1.891 -8.453,-1.66 -3.561,-2.509 0,0"
             style="fill:#ff75b1;fill-opacity:1;fill-rule:nonzero;stroke:none"
             id="path6532" />
        </g>
        <g
           id="g6534"
           transform="translate(3470.3083,2807.2883)">
          <path
             d="M 0,0 C 3.542,2.496 4.39,7.391 1.887,10.943 -0.603,14.477 -5.498,15.325 -9.04,12.829 -12.584,10.331 -13.438,5.432 -10.948,1.898 -8.445,-1.654 -3.544,-2.497 0,0"
             style="fill:#ff75b1;fill-opacity:1;fill-rule:nonzero;stroke:none"
             id="path6536" />
        </g>
        <g
           id="g6538"
           transform="translate(3466.5522,2873.9585)">
          <path
             d="m 0,0 c 3.544,2.497 4.393,7.39 1.902,10.926 -2.504,3.552 -7.398,4.4 -10.942,1.903 C -12.584,10.332 -13.438,5.432 -10.935,1.88 -8.444,-1.656 -3.544,-2.497 0,0"
             style="fill:#ff75b1;fill-opacity:1;fill-rule:nonzero;stroke:none"
             id="path6540" />
        </g>
        <g
           id="g6542"
           transform="translate(3390.9958,2811.7598)">
          <path
             d="M 0,0 C 3.536,2.491 4.372,7.403 1.87,10.953 -0.621,14.489 -5.516,15.336 -9.052,12.845 -12.595,10.348 -13.45,5.449 -10.959,1.913 -8.457,-1.637 -3.544,-2.497 0,0"
             style="fill:#ff75b1;fill-opacity:1;fill-rule:nonzero;stroke:none"
             id="path6544" />
        </g>
        <g
           id="g6546"
           transform="translate(3434.761,2785.6616)">
          <path
             d="M 0,0 C 6.835,4.817 8.474,14.272 3.663,21.099 -1.149,27.927 -10.615,29.581 -17.45,24.764 -24.285,19.947 -25.913,10.477 -21.101,3.648 -16.29,-3.178 -6.835,-4.817 0,0"
             style="fill:#ff75b1;fill-opacity:1;fill-rule:nonzero;stroke:none"
             id="path6548" />
        </g>
        <g
           id="g6550"
           transform="translate(3343.7793,2765.7954)">
          <path
             d="m 0,0 c 6.844,4.823 8.474,14.272 3.651,21.115 -4.81,6.827 -14.258,8.471 -21.101,3.649 C -24.277,19.953 -25.915,10.498 -21.105,3.671 -16.282,-3.173 -6.827,-4.811 0,0"
             style="fill:#ff75b1;fill-opacity:1;fill-rule:nonzero;stroke:none"
             id="path6552" />
        </g>
        <g
           id="g6554"
           transform="translate(3358.853,2643.6582)">
          <path
             d="m 0,0 c 6.829,4.812 8.467,14.267 3.656,21.094 -4.823,6.844 -14.278,8.482 -21.106,3.67 -6.859,-4.833 -8.481,-14.276 -3.658,-21.12 C -16.297,-3.183 -6.859,-4.833 0,0"
             style="fill:#ff75b1;fill-opacity:1;fill-rule:nonzero;stroke:none"
             id="path6556" />
        </g>
        <g
           id="g6558"
           transform="translate(3494.7222,2525.3113)">
          <path
             d="m 0,0 c 6.827,4.811 8.465,14.266 3.643,21.109 -4.812,6.829 -14.267,8.467 -21.094,3.656 -6.844,-4.822 -8.482,-14.277 -3.67,-21.106 C -16.299,-3.185 -6.844,-4.823 0,0"
             style="fill:#ff75b1;fill-opacity:1;fill-rule:nonzero;stroke:none"
             id="path6560" />
        </g>
        <g
           id="g6562"
           transform="translate(3615.553,2717.5149)">
          <path
             d="M 0,0 C 6.844,4.822 8.485,14.255 3.663,21.099 -1.16,27.942 -10.607,29.586 -17.45,24.764 -24.294,19.941 -25.924,10.492 -21.101,3.648 -16.279,-3.195 -6.844,-4.823 0,0"
             style="fill:#ff75b1;fill-opacity:1;fill-rule:nonzero;stroke:none"
             id="path6564" />
        </g>
        <g
           id="g6566"
           transform="translate(3518.1514,2684.8711)">
          <path
             d="m 0,0 c 6.827,4.811 8.473,14.272 3.651,21.115 -4.823,6.844 -14.286,8.476 -21.113,3.666 C -24.305,19.958 -25.944,10.503 -21.121,3.659 -16.299,-3.184 -6.844,-4.822 0,0"
             style="fill:#ff75b1;fill-opacity:1;fill-rule:nonzero;stroke:none"
             id="path6568" />
        </g>
        <g
           id="g6570"
           transform="translate(3444.3994,2837.718)">
          <path
             d="M 0,0 C 6.835,4.817 8.465,14.266 3.643,21.11 -1.18,27.953 -10.615,29.58 -17.45,24.764 -24.294,19.941 -25.944,10.503 -21.121,3.659 -16.299,-3.184 -6.844,-4.823 0,0"
             style="fill:#ff75b1;fill-opacity:1;fill-rule:nonzero;stroke:none"
             id="path6572" />
        </g>
        <g
           id="g6574"
           transform="translate(3506.3894,2895.8171)">
          <path
             d="m 0,0 c 6.827,4.811 8.457,14.26 3.635,21.104 -4.811,6.827 -14.258,8.471 -21.085,3.66 C -24.294,19.942 -25.932,10.486 -21.121,3.659 -16.299,-3.184 -6.844,-4.823 0,0"
             style="fill:#ff75b1;fill-opacity:1;fill-rule:nonzero;stroke:none"
             id="path6576" />
        </g>
        <g
           id="g6578"
           transform="translate(3379.7859,2744.8848)">
          <path
             d="m 0,0 c 3.552,2.503 4.4,7.398 1.91,10.931 -2.503,3.553 -7.398,4.401 -10.95,1.897 -3.534,-2.49 -4.39,-7.39 -1.887,-10.942 C -8.437,-1.648 -3.534,-2.49 0,0"
             style="fill:#ff75b1;fill-opacity:1;fill-rule:nonzero;stroke:none"
             id="path6580" />
        </g>
        <g
           id="g6582"
           transform="translate(3306.3376,2817.9988)">
          <path
             d="M 0,0 C 3.535,2.491 4.383,7.386 1.881,10.936 -0.61,14.472 -5.505,15.32 -9.04,12.829 -12.591,10.327 -13.439,5.432 -10.947,1.896 -8.445,-1.654 -3.551,-2.502 0,0"
             style="fill:#ff75b1;fill-opacity:1;fill-rule:nonzero;stroke:none"
             id="path6584" />
        </g>
        <g
           id="g6586"
           transform="translate(3333.3818,2692.9641)">
          <path
             d="m 0,0 c 3.535,2.491 4.383,7.383 1.88,10.935 -2.502,3.551 -7.383,4.383 -10.919,1.892 -3.552,-2.503 -4.41,-7.38 -1.908,-10.931 C -8.444,-1.656 -3.552,-2.503 0,0"
             style="fill:#ff75b1;fill-opacity:1;fill-rule:nonzero;stroke:none"
             id="path6588" />
        </g>
        <g
           id="g6590"
           transform="translate(3395.3245,2674.1875)">
          <path
             d="M 0,0 C 3.534,2.49 4.393,7.368 1.89,10.92 -0.601,14.456 -5.506,15.319 -9.04,12.829 -12.592,10.326 -13.445,5.405 -10.953,1.87 -8.45,-1.682 -3.552,-2.503 0,0"
             style="fill:#ff75b1;fill-opacity:1;fill-rule:nonzero;stroke:none"
             id="path6592" />
        </g>
        <g
           id="g6594"
           transform="translate(3311.5354,2622.6699)">
          <path
             d="m 0,0 c 3.536,2.491 4.4,7.395 1.897,10.947 -2.492,3.536 -7.412,4.388 -10.947,1.897 -3.536,-2.492 -4.372,-7.4 -1.88,-10.936 C -8.427,-1.644 -3.535,-2.491 0,0"
             style="fill:#ff75b1;fill-opacity:1;fill-rule:nonzero;stroke:none"
             id="path6596" />
        </g>
        <g
           id="g6598"
           transform="translate(3490.6987,2602.1094)">
          <path
             d="M 0,0 C 3.544,2.497 4.4,7.395 1.908,10.93 -0.595,14.482 -5.495,15.324 -9.039,12.827 -12.574,10.336 -13.43,5.438 -10.927,1.886 -8.436,-1.65 -3.535,-2.491 0,0"
             style="fill:#ff75b1;fill-opacity:1;fill-rule:nonzero;stroke:none"
             id="path6600" />
        </g>
        <g
           id="g6602"
           transform="translate(3444.0632,2637.1548)">
          <path
             d="m 0,0 c 3.536,2.491 4.383,7.383 1.88,10.935 -2.503,3.553 -7.395,4.4 -10.931,1.909 C -12.603,10.341 -13.467,5.437 -10.964,1.885 -8.46,-1.667 -3.552,-2.503 0,0"
             style="fill:#ff75b1;fill-opacity:1;fill-rule:nonzero;stroke:none"
             id="path6604" />
        </g>
        <g
           id="g6606"
           transform="translate(3649.48,3440.4299)">
          <path
             d="m 0,0 c 4.08,-3.86 5.327,-10.092 1.81,-19.79 -8.763,-24.195 -33.491,-39.474 -46.86,-61.333 -20.261,-33.123 3.081,-56.38 18.623,-86.979 10.707,-21.118 34.384,-50.498 1.874,-60.884 -17.436,-5.563 -41.295,5.268 -57.824,8.353 -55.028,10.273 -68.485,-13.164 -105.246,-48.534 -9.295,-8.954 -18.472,-22.312 -33.393,-19.478 -36.234,6.868 -20.795,71.978 -24.274,96.648 -7.865,55.731 -78.146,34.869 -99.824,78.047 -14.536,29.015 42.419,44.939 59.698,52.93 46.908,21.744 44.494,43.852 51.597,94.047 4.785,33.819 22.498,39.956 48.53,20.595 19.747,-14.675 34.908,-35.142 55.639,-48.493 26.052,-16.787 50.254,-7.339 79.532,-2.547 C -33.963,5.229 -9.429,8.901 0,0"
             style="fill:#ff1400;fill-opacity:1;fill-rule:nonzero;stroke:none"
             id="path6608" />
        </g>
        <g
           id="g6610"
           transform="translate(3511.1953,3345.1702)">
          <path
             d="m 0,0 c -8.734,-6.154 -20.802,-4.063 -26.962,4.678 -6.159,8.74 -4.062,20.8 4.672,26.954 8.732,6.153 20.802,4.077 26.961,-4.663 C 10.831,18.227 8.732,6.153 0,0"
             style="fill:#fff3f2;fill-opacity:1;fill-rule:nonzero;stroke:none"
             id="path6612" />
        </g>
        <g
           id="g6614"
           transform="translate(3514.2759,3350.3035)">
          <path
             d="m 0,0 c -5.513,-3.885 -13.114,-2.555 -16.994,2.951 -3.879,5.506 -2.57,13.103 2.943,16.989 5.506,3.879 13.109,2.561 16.989,-2.944 C 6.818,11.49 5.505,3.879 0,0"
             style="fill:#422d2d;fill-opacity:1;fill-rule:nonzero;stroke:none"
             id="path6616" />
        </g>
        <g
           id="g6618"
           transform="translate(3539.3062,3302.7275)">
          <path
             d="m 0,0 c -8.733,-6.154 -20.801,-4.078 -26.961,4.664 -6.154,8.733 -4.056,20.804 4.678,26.959 8.741,6.159 20.807,4.069 26.961,-4.664 C 10.838,18.217 8.742,6.16 0,0"
             style="fill:#fff3f2;fill-opacity:1;fill-rule:nonzero;stroke:none"
             id="path6620" />
        </g>
        <g
           id="g6622"
           transform="translate(3542.3914,3307.8367)">
          <path
             d="m 0,0 c -5.505,-3.879 -13.121,-2.558 -17.001,2.947 -3.885,5.513 -2.561,13.122 2.944,17.001 5.507,3.88 13.118,2.568 17.003,-2.946 C 6.825,11.497 5.507,3.88 0,0"
             style="fill:#422d2d;fill-opacity:1;fill-rule:nonzero;stroke:none"
             id="path6624" />
        </g>
        <g
           id="g6626"
           transform="translate(3457.4985,3245.6123)">
          <path
             d="m 0,0 c 6.835,4.817 8.479,14.264 3.657,21.107 -4.818,6.837 -14.272,8.474 -21.107,3.657 -6.837,-4.818 -8.475,-14.27 -3.657,-21.107 C -16.284,-3.187 -6.837,-4.818 0,0"
             style="fill:#ff857a;fill-opacity:1;fill-rule:nonzero;stroke:none"
             id="path6628" />
        </g>
        <g
           id="g6630"
           transform="translate(3462.6331,3312.3591)">
          <path
             d="m 0,0 c 6.827,4.811 8.471,14.258 3.648,21.101 -4.816,6.836 -14.265,8.465 -21.093,3.655 -6.851,-4.829 -8.487,-14.27 -3.67,-21.105 C -16.293,-3.193 -6.852,-4.828 0,0"
             style="fill:#ff857a;fill-opacity:1;fill-rule:nonzero;stroke:none"
             id="path6632" />
        </g>
        <g
           id="g6634"
           transform="translate(3387.1306,3325.0129)">
          <path
             d="M 0,0 C 6.835,4.817 8.473,14.272 3.651,21.115 -1.16,27.942 -10.615,29.58 -17.45,24.764 -24.277,19.953 -25.924,10.492 -21.113,3.665 -16.291,-3.178 -6.827,-4.811 0,0"
             style="fill:#ff857a;fill-opacity:1;fill-rule:nonzero;stroke:none"
             id="path6636" />
        </g>
        <g
           id="g6638"
           transform="translate(3472.4575,3401.6072)">
          <path
             d="M 0,0 C 6.827,4.811 8.473,14.272 3.651,21.115 -1.16,27.942 -10.623,29.575 -17.45,24.764 -24.287,19.946 -25.924,10.492 -21.113,3.665 -16.291,-3.178 -6.837,-4.818 0,0"
             style="fill:#ff857a;fill-opacity:1;fill-rule:nonzero;stroke:none"
             id="path6640" />
        </g>
        <g
           id="g6642"
           transform="translate(3574.6699,3366.5989)">
          <path
             d="m 0,0 c 6.827,4.811 8.465,14.266 3.648,21.101 -4.817,6.837 -14.271,8.474 -21.098,3.663 -6.844,-4.823 -8.475,-14.27 -3.657,-21.107 C -16.291,-3.178 -6.844,-4.823 0,0"
             style="fill:#ff857a;fill-opacity:1;fill-rule:nonzero;stroke:none"
             id="path6644" />
        </g>
        <g
           id="g6646"
           transform="translate(3578.4287,3251.2217)">
          <path
             d="m 0,0 c 6.827,4.811 8.474,14.272 3.651,21.115 -4.822,6.844 -14.286,8.476 -21.113,3.666 C -24.299,19.963 -25.935,10.509 -21.113,3.665 -16.291,-3.178 -6.837,-4.818 0,0"
             style="fill:#ff857a;fill-opacity:1;fill-rule:nonzero;stroke:none"
             id="path6648" />
        </g>
        <g
           id="g6650"
           transform="translate(3482.2791,3210.9431)">
          <path
             d="M 0,0 C 3.536,2.491 4.393,7.39 1.89,10.943 -0.601,14.478 -5.515,15.335 -9.05,12.844 -12.594,10.346 -13.438,5.432 -10.947,1.897 -8.444,-1.656 -3.544,-2.497 0,0"
             style="fill:#ff857a;fill-opacity:1;fill-rule:nonzero;stroke:none"
             id="path6652" />
        </g>
        <g
           id="g6654"
           transform="translate(3441.6987,3197.4431)">
          <path
             d="M 0,0 C 3.536,2.492 4.398,7.397 1.896,10.947 -0.595,14.483 -5.504,15.32 -9.04,12.829 -12.592,10.326 -13.438,5.432 -10.947,1.897 -8.445,-1.654 -3.552,-2.503 0,0"
             style="fill:#ff857a;fill-opacity:1;fill-rule:nonzero;stroke:none"
             id="path6656" />
        </g>
        <g
           id="g6658"
           transform="translate(3520.9871,3248.5085)">
          <path
             d="m 0,0 c 3.536,2.491 4.382,7.385 1.879,10.937 -2.502,3.551 -7.395,4.4 -10.931,1.908 C -12.595,10.348 -13.458,5.443 -10.956,1.892 -8.453,-1.66 -3.544,-2.497 0,0"
             style="fill:#ff857a;fill-opacity:1;fill-rule:nonzero;stroke:none"
             id="path6660" />
        </g>
        <g
           id="g6662"
           transform="translate(3429.0217,3296.2346)">
          <path
             d="M 0,0 C 3.552,2.503 4.4,7.395 1.902,10.939 -0.601,14.491 -5.492,15.338 -9.045,12.835 -12.58,10.344 -13.428,5.452 -10.925,1.9 -8.427,-1.644 -3.536,-2.491 0,0"
             style="fill:#ff857a;fill-opacity:1;fill-rule:nonzero;stroke:none"
             id="path6664" />
        </g>
        <g
           id="g6666"
           transform="translate(3410.3003,3376.3621)">
          <path
             d="m 0,0 c 3.544,2.497 4.397,7.381 1.894,10.933 -2.497,3.544 -7.395,4.4 -10.939,1.902 C -12.58,10.344 -13.432,5.437 -10.935,1.893 -8.432,-1.659 -3.536,-2.491 0,0"
             style="fill:#ff857a;fill-opacity:1;fill-rule:nonzero;stroke:none"
             id="path6668" />
        </g>
        <g
           id="g6670"
           transform="translate(3459.9177,3365.3457)">
          <path
             d="M 0,0 C 3.542,2.496 4.394,7.403 1.896,10.947 -0.601,14.491 -5.502,15.331 -9.045,12.835 -12.58,10.344 -13.429,5.451 -10.932,1.907 -8.435,-1.637 -3.536,-2.491 0,0"
             style="fill:#ff857a;fill-opacity:1;fill-rule:nonzero;stroke:none"
             id="path6672" />
        </g>
        <g
           id="g6674"
           transform="translate(3443.4907,3447.0876)">
          <path
             d="M 0,0 C 3.536,2.491 4.398,7.396 1.901,10.94 -0.596,14.484 -5.504,15.32 -9.04,12.829 -12.584,10.331 -13.431,5.44 -10.934,1.896 -8.437,-1.648 -3.544,-2.497 0,0"
             style="fill:#ff857a;fill-opacity:1;fill-rule:nonzero;stroke:none"
             id="path6676" />
        </g>
        <g
           id="g6678"
           transform="translate(3475.7368,3451.9731)">
          <path
             d="m 0,0 c 3.535,2.491 4.385,7.385 1.882,10.937 -2.498,3.543 -7.391,4.39 -10.927,1.898 -3.55,-2.502 -4.408,-7.4 -1.911,-10.944 C -8.452,-1.661 -3.551,-2.502 0,0"
             style="fill:#ff857a;fill-opacity:1;fill-rule:nonzero;stroke:none"
             id="path6680" />
        </g>
        <g
           id="g6682"
           transform="translate(3524.8904,3398.7878)">
          <path
             d="m 0,0 c 3.534,2.49 4.383,7.383 1.886,10.927 -2.497,3.544 -7.391,4.39 -10.925,1.9 C -12.591,10.324 -13.448,5.425 -10.951,1.881 -8.454,-1.663 -3.552,-2.503 0,0"
             style="fill:#ff857a;fill-opacity:1;fill-rule:nonzero;stroke:none"
             id="path6684" />
        </g>
        <g
           id="g6686"
           transform="translate(3601.7185,3412.4431)">
          <path
             d="m 0,0 c 3.536,2.491 4.383,7.383 1.886,10.927 -2.497,3.544 -7.389,4.391 -10.925,1.9 C -12.583,10.33 -13.438,5.432 -10.941,1.888 -8.444,-1.656 -3.544,-2.497 0,0"
             style="fill:#ff857a;fill-opacity:1;fill-rule:nonzero;stroke:none"
             id="path6688" />
        </g>
        <g
           id="g6690"
           transform="translate(3579.0352,3320.9661)">
          <path
             d="m 0,0 c 3.544,2.497 4.381,7.407 1.89,10.942 -2.503,3.552 -7.391,4.391 -10.934,1.893 -3.544,-2.497 -4.398,-7.38 -1.895,-10.933 C -8.447,-1.633 -3.544,-2.497 0,0"
             style="fill:#ff857a;fill-opacity:1;fill-rule:nonzero;stroke:none"
             id="path6692" />
        </g>
        <g
           id="g6694"
           transform="translate(3620.3718,3238.9353)">
          <path
             d="m 0,0 c 3.544,2.497 4.37,7.423 1.878,10.959 -2.491,3.536 -7.386,4.384 -10.93,1.886 -3.55,-2.501 -4.406,-7.402 -1.915,-10.938 C -8.476,-1.628 -3.55,-2.502 0,0"
             style="fill:#ff857a;fill-opacity:1;fill-rule:nonzero;stroke:none"
             id="path6696" />
        </g>
        <g
           id="g6698"
           transform="translate(3491.3726,3274.9673)">
          <path
             d="m 0,0 c 3.544,2.497 4.378,7.407 1.882,10.949 -2.497,3.544 -7.39,4.394 -10.934,1.896 C -12.595,10.348 -13.458,5.443 -10.961,1.899 -8.465,-1.643 -3.544,-2.497 0,0"
             style="fill:#ff857a;fill-opacity:1;fill-rule:nonzero;stroke:none"
             id="path6700" />
        </g>
        <g
           id="g6702"
           transform="translate(2834.7783,3776.2351)">
          <path
             d="m 0,0 c 5.108,2.603 11.205,3.49 18.45,2.078 29.385,-5.637 32.5,-29.036 42.748,-52.105 21.009,-47.328 42.078,-44.008 82.001,-24.735 19.441,9.404 93.018,46.822 96.501,2.737 3.378,-42.906 -44.926,-65.234 -50.03,-104.522 -5.872,-45.311 42.965,-75.299 56.818,-114.127 22.166,-62.058 -44.057,-41.287 -75.819,-24.714 -16.462,8.605 -34.205,29.872 -54.585,27.04 -57.141,-7.961 -52.844,-112.79 -107.366,-117.802 -55.364,-5.023 -25.47,111.607 -40.018,136.11 -11.98,20.136 -165.874,46.479 -115.75,87.285 37.574,30.578 92.837,15.495 112.472,68.103 C -26.743,-93.634 -30.708,-15.694 0,0"
             style="fill:#85147a;fill-opacity:1;fill-rule:nonzero;stroke:none"
             id="path6704" />
        </g>
        <g
           id="g6706"
           transform="translate(2918.303,3598.4309)">
          <path
             d="m 0,0 c -8.733,-6.154 -20.802,-4.063 -26.956,4.67 -6.159,8.74 -4.068,20.808 4.666,26.962 8.733,6.155 20.8,4.063 26.958,-4.677 C 10.823,18.221 8.734,6.154 0,0"
             style="fill:#fff3f2;fill-opacity:1;fill-rule:nonzero;stroke:none"
             id="path6708" />
        </g>
        <g
           id="g6710"
           transform="translate(2921.3894,3603.5559)">
          <path
             d="m 0,0 c -5.513,-3.885 -13.122,-2.561 -17.007,2.952 -3.88,5.507 -2.562,13.109 2.952,16.994 5.513,3.885 13.107,2.564 16.988,-2.943 C 6.818,11.49 5.513,3.885 0,0"
             style="fill:#422d2d;fill-opacity:1;fill-rule:nonzero;stroke:none"
             id="path6712" />
        </g>
        <g
           id="g6714"
           transform="translate(2946.4258,3555.9717)">
          <path
             d="m 0,0 c -8.734,-6.154 -20.805,-4.055 -26.959,4.678 -6.16,8.742 -4.07,20.807 4.664,26.961 8.742,6.16 20.807,4.07 26.967,-4.672 C 10.826,18.234 8.742,6.16 0,0"
             style="fill:#fff3f2;fill-opacity:1;fill-rule:nonzero;stroke:none"
             id="path6716" />
        </g>
        <g
           id="g6718"
           transform="translate(2949.4934,3561.1057)">
          <path
             d="m 0,0 c -5.505,-3.879 -13.115,-2.568 -16.995,2.939 -3.879,5.505 -2.561,13.122 2.944,17.001 5.507,3.88 13.123,2.559 17.003,-2.946 C 6.832,11.488 5.507,3.881 0,0"
             style="fill:#422d2d;fill-opacity:1;fill-rule:nonzero;stroke:none"
             id="path6720" />
        </g>
        <g
           id="g6722"
           transform="translate(3001.1492,3565.5898)">
          <path
             d="M 0,0 C 6.827,4.811 8.471,14.258 3.648,21.101 -1.168,27.937 -10.623,29.574 -17.45,24.764 -24.286,19.947 -25.924,10.492 -21.107,3.657 -16.285,-3.187 -6.835,-4.817 0,0"
             style="fill:#af65a8;fill-opacity:1;fill-rule:nonzero;stroke:none"
             id="path6724" />
        </g>
        <g
           id="g6726"
           transform="translate(3009.8052,3634.1245)">
          <path
             d="M 0,0 C 6.835,4.817 8.473,14.272 3.657,21.107 -1.16,27.943 -10.615,29.581 -17.45,24.764 -24.286,19.948 -25.924,10.492 -21.107,3.657 -16.291,-3.178 -6.835,-4.817 0,0"
             style="fill:#af65a8;fill-opacity:1;fill-rule:nonzero;stroke:none"
             id="path6728" />
        </g>
        <g
           id="g6730"
           transform="translate(2851.1963,3647.9226)">
          <path
             d="M 0,0 C 6.835,4.817 8.469,14.279 3.657,21.107 -1.16,27.942 -10.615,29.581 -17.45,24.764 -24.285,19.947 -25.924,10.492 -21.107,3.657 -16.295,-3.172 -6.835,-4.817 0,0"
             style="fill:#af65a8;fill-opacity:1;fill-rule:nonzero;stroke:none"
             id="path6732" />
        </g>
        <g
           id="g6734"
           transform="translate(2875.3445,3508.5029)">
          <path
             d="M 0,0 C 6.827,4.811 8.465,14.266 3.648,21.101 -1.168,27.936 -10.623,29.574 -17.45,24.764 -24.296,19.94 -25.932,10.486 -21.115,3.651 -16.299,-3.184 -6.845,-4.824 0,0"
             style="fill:#af65a8;fill-opacity:1;fill-rule:nonzero;stroke:none"
             id="path6736" />
        </g>
        <g
           id="g6738"
           transform="translate(2800.5417,3548.4211)">
          <path
             d="M 0,0 C 6.836,4.817 8.474,14.272 3.657,21.107 -1.159,27.942 -10.615,29.581 -17.45,24.764 -24.277,19.953 -25.915,10.498 -21.099,3.663 -16.282,-3.173 -6.827,-4.811 0,0"
             style="fill:#af65a8;fill-opacity:1;fill-rule:nonzero;stroke:none"
             id="path6740" />
        </g>
        <g
           id="g6742"
           transform="translate(3012.6855,3504.427)">
          <path
             d="M 0,0 C 3.535,2.491 4.39,7.391 1.894,10.933 -0.603,14.477 -5.505,15.32 -9.04,12.829 -12.592,10.325 -13.439,5.432 -10.941,1.888 -8.445,-1.654 -3.552,-2.503 0,0"
             style="fill:#af65a8;fill-opacity:1;fill-rule:nonzero;stroke:none"
             id="path6744" />
        </g>
        <g
           id="g6746"
           transform="translate(2971.511,3508.3354)">
          <path
             d="M 0,0 C 3.544,2.497 4.38,7.406 1.883,10.949 -0.609,14.485 -5.502,15.334 -9.046,12.837 -12.598,10.334 -13.444,5.44 -10.953,1.905 -8.456,-1.639 -3.552,-2.503 0,0"
             style="fill:#af65a8;fill-opacity:1;fill-rule:nonzero;stroke:none"
             id="path6748" />
        </g>
        <g
           id="g6750"
           transform="translate(3050.0974,3471.7769)">
          <path
             d="M 0,0 C 3.535,2.491 4.39,7.391 1.894,10.933 -0.603,14.477 -5.51,15.328 -9.046,12.837 -12.59,10.34 -13.43,5.438 -10.933,1.894 -8.437,-1.648 -3.544,-2.497 0,0"
             style="fill:#af65a8;fill-opacity:1;fill-rule:nonzero;stroke:none"
             id="path6752" />
        </g>
        <g
           id="g6754"
           transform="translate(2959.7341,3626.2915)">
          <path
             d="M 0,0 C 3.544,2.497 4.398,7.396 1.897,10.947 -0.595,14.482 -5.501,15.333 -9.045,12.835 -12.58,10.344 -13.422,5.444 -10.93,1.908 -8.428,-1.642 -3.536,-2.491 0,0"
             style="fill:#af65a8;fill-opacity:1;fill-rule:nonzero;stroke:none"
             id="path6756" />
        </g>
        <g
           id="g6758"
           transform="translate(2897.6606,3655.9683)">
          <path
             d="m 0,0 c 3.534,2.49 4.399,7.396 1.897,10.947 -2.492,3.535 -7.409,4.38 -10.943,1.89 C -12.59,10.34 -13.432,5.437 -10.94,1.901 -8.438,-1.649 -3.544,-2.497 0,0"
             style="fill:#af65a8;fill-opacity:1;fill-rule:nonzero;stroke:none"
             id="path6760" />
        </g>
        <g
           id="g6762"
           transform="translate(2858.2678,3735.2405)">
          <path
             d="M 0,0 C 3.542,2.496 4.384,7.399 1.882,10.949 -0.609,14.485 -5.51,15.341 -9.052,12.845 -12.587,10.354 -13.438,5.445 -10.946,1.91 -8.444,-1.641 -3.536,-2.491 0,0"
             style="fill:#af65a8;fill-opacity:1;fill-rule:nonzero;stroke:none"
             id="path6764" />
        </g>
        <g
           id="g6766"
           transform="translate(2875.8076,3694.7781)">
          <path
             d="m 0,0 c 3.536,2.491 4.393,7.39 1.896,10.934 -2.497,3.544 -7.405,4.393 -10.94,1.901 C -12.595,10.333 -13.438,5.432 -10.941,1.888 -8.444,-1.656 -3.551,-2.502 0,0"
             style="fill:#af65a8;fill-opacity:1;fill-rule:nonzero;stroke:none"
             id="path6768" />
        </g>
        <g
           id="g6770"
           transform="translate(2803.72,3617.9124)">
          <path
             d="m 0,0 c 3.542,2.496 4.398,7.396 1.901,10.94 -2.49,3.534 -7.405,4.393 -10.947,1.897 C -12.59,10.34 -13.426,5.428 -10.936,1.895 -8.438,-1.649 -3.544,-2.497 0,0"
             style="fill:#af65a8;fill-opacity:1;fill-rule:nonzero;stroke:none"
             id="path6772" />
        </g>
        <g
           id="g6774"
           transform="translate(2859.594,3575.6284)">
          <path
             d="M 0,0 C 3.544,2.497 4.385,7.397 1.888,10.941 -0.603,14.477 -5.501,15.333 -9.044,12.835 -12.596,10.332 -13.438,5.432 -10.947,1.896 -8.45,-1.647 -3.552,-2.503 0,0"
             style="fill:#af65a8;fill-opacity:1;fill-rule:nonzero;stroke:none"
             id="path6776" />
        </g>
        <g
           id="g6778"
           transform="translate(2866.7263,3437.9319)">
          <path
             d="m 0,0 c 3.536,2.491 4.382,7.385 1.88,10.935 -2.497,3.544 -7.39,4.393 -10.926,1.902 -3.535,-2.491 -4.398,-7.396 -1.901,-10.94 C -8.445,-1.654 -3.536,-2.491 0,0"
             style="fill:#af65a8;fill-opacity:1;fill-rule:nonzero;stroke:none"
             id="path6780" />
        </g>
        <g
           id="g6782"
           transform="translate(2835.1633,3467.1558)">
          <path
             d="M 0,0 C 3.552,2.503 4.394,7.403 1.903,10.939 -0.595,14.483 -5.494,15.34 -9.046,12.837 -12.598,10.334 -13.438,5.432 -10.941,1.888 -8.45,-1.647 -3.552,-2.503 0,0"
             style="fill:#af65a8;fill-opacity:1;fill-rule:nonzero;stroke:none"
             id="path6784" />
        </g>
        <g
           id="g6786"
           transform="translate(2924.7317,3493.9016)">
          <path
             d="M 0,0 C 3.536,2.491 4.376,7.393 1.88,10.936 -0.617,14.479 -5.51,15.329 -9.046,12.837 -12.59,10.34 -13.444,5.441 -10.947,1.897 -8.451,-1.646 -3.544,-2.497 0,0"
             style="fill:#af65a8;fill-opacity:1;fill-rule:nonzero;stroke:none"
             id="path6788" />
        </g>
        <g
           id="g6790"
           transform="translate(2731.9585,3570.7668)">
          <path
             d="M 0,0 C 3.552,2.503 4.395,7.406 1.898,10.948 -0.593,14.484 -5.494,15.34 -9.046,12.837 -12.596,10.335 -13.422,5.444 -10.93,1.908 -8.434,-1.634 -3.551,-2.502 0,0"
             style="fill:#af65a8;fill-opacity:1;fill-rule:nonzero;stroke:none"
             id="path6792" />
        </g>
        <g
           id="g6794"
           transform="translate(2950.252,3650.4941)">
          <path
             d="m 0,0 c 3.536,2.491 4.383,7.383 1.886,10.927 -2.497,3.544 -7.395,4.4 -10.931,1.908 -3.56,-2.508 -4.402,-7.408 -1.904,-10.952 C -8.452,-1.661 -3.56,-2.509 0,0"
             style="fill:#af65a8;fill-opacity:1;fill-rule:nonzero;stroke:none"
             id="path6796" />
        </g>
        <g
           id="g6798"
           transform="translate(3041.073,3682.2485)">
          <path
             d="M 0,0 C 3.544,2.497 4.39,7.391 1.894,10.933 -0.603,14.477 -5.496,15.326 -9.04,12.829 -12.575,10.337 -13.438,5.432 -10.941,1.888 -8.445,-1.654 -3.536,-2.491 0,0"
             style="fill:#af65a8;fill-opacity:1;fill-rule:nonzero;stroke:none"
             id="path6800" />
        </g>
        <g
           id="g6802"
           transform="translate(3003.5891,3681.9006)">
          <path
             d="M 0,0 C 3.544,2.497 4.398,7.396 1.901,10.94 -0.595,14.483 -5.502,15.334 -9.046,12.837 -12.598,10.334 -13.438,5.432 -10.942,1.89 -8.445,-1.654 -3.552,-2.503 0,0"
             style="fill:#af65a8;fill-opacity:1;fill-rule:nonzero;stroke:none"
             id="path6804" />
        </g>
        <g
           id="g6806"
           transform="translate(557.3466,3625.5034)">
          <path
             d="m 0,0 c 1.034,-30.123 24.885,-59.437 58.523,-48.493 16.286,5.273 32.346,20.816 51.544,12.303 12.89,-5.721 17.509,-22.746 10.409,-35.672 -8.031,-14.613 -29.072,-18.301 -40.015,-29.381 -33.724,-34.208 -17.389,-97.039 31.139,-106.707 49.615,-9.858 66.33,53.578 71.638,89.526 7.496,50.749 48.77,32.81 64.366,-2.982 18.179,-41.72 21.592,-92.507 83.251,-85.044 45.891,5.548 76.067,48.614 71.758,93.885 -4.79,50.596 -66.674,47.096 -84.993,86.474 -16.628,35.844 30.211,45.874 55.491,50.062 123.164,20.456 89.904,158.801 -20.438,118.546 -45.685,-16.682 -36.638,-75.464 -76.032,-97.97 -18.37,-10.495 -43.755,-6.203 -54.766,12.46 -24.903,42.135 31.776,125.732 -34.518,148.702 -37.879,13.133 -78.979,-9.684 -87.25,-48.907 -8.617,-40.893 26.676,-58.679 44.529,-89.8 C 165.971,29.796 126.835,15.922 98.21,30.83 66.882,47.132 34.465,70.138 8.375,31.123 2.206,21.885 -0.379,10.891 0,0"
             style="fill:#ff6600;fill-opacity:1;fill-rule:nonzero;stroke:none"
             id="path6808" />
        </g>
        <g
           id="g6810"
           transform="translate(278.4016,3318.48)">
          <path
             d="m 0,0 c -18.648,2.575 -45.052,0.305 -53.922,-16.083 -24.386,-45.1 42.157,-49.227 54.205,-71.079 10.36,-18.822 -12.982,-29.77 -25.015,-38.514 -17.031,-12.354 -29.606,-19.598 -31.67,-43.474 -3.681,-42.486 40.234,-68.591 78.229,-58.843 28.367,7.269 40.956,33.349 72.76,32.14 38.749,-1.475 43.459,-27.588 61.684,-51.684 17.166,-22.714 59.917,-49.007 89.155,-33.295 45.248,24.347 -4.269,74.062 -9.772,103.935 -7.566,41.136 32.487,40.044 61.581,49.777 32.173,10.752 39.519,41.128 10.142,63.459 -25.046,19.048 -75.867,7.825 -95.929,29.048 C 186.52,-8.25 237.89,121.334 151.553,95.733 101.478,80.882 124.546,20.046 87.758,-8.069 59.377,-29.747 37.188,-8.767 8.124,-1.538 5.668,-0.934 2.927,-0.408 0,0"
             style="fill:#c17feb;fill-opacity:1;fill-rule:nonzero;stroke:none"
             id="path6812" />
        </g>
        <g
           id="g6814"
           transform="translate(524.8716,2568.0024)">
          <path
             d="m 0,0 c -18.67,-7.783 -34.916,-10.995 -34.92,5.558 0,17.034 33.909,41.878 43.042,56.687 C 21.213,83.45 59.601,196.168 5.376,191.191 -33.729,187.621 -41.276,84.736 -51.22,57.464 -61.829,28.407 -76.158,21.395 -77.926,58.708 c -1.427,29.997 17.341,56.559 10.998,87.867 -5.234,25.845 -25.905,68.594 -58.857,61.311 -35.798,-7.911 -24.563,-59.992 -13.46,-85.743 10.434,-24.201 28.414,-47.984 33.855,-73.55 3.607,-16.96 -3.713,-41.683 -25.179,-22.735 -14.482,12.794 -12.466,55.489 -25.635,72.956 -16.489,21.855 -42.107,20.483 -49.698,-7.127 -7.043,-25.615 5.197,-51.209 17.805,-72.747 8.168,-13.943 23.788,-23.214 38.793,-28.251 10.394,-3.49 32.904,-7.371 32.324,-23.282 -0.677,-18.522 -37.686,-7.5 -48.482,-4.376 -18.592,5.383 -56.125,7.608 -48.443,-23.809 12.003,-49.107 108.744,35.143 112.882,-2.346 2.418,-21.889 -38.631,-24.31 -46.485,-44.887 -6.495,-17.02 4.364,-46.679 26.152,-39.788 18.602,5.869 27.508,32.18 36.593,47.118 9.927,16.337 26.582,39.443 36.109,9.217 6.151,-19.522 -4.628,-43.088 4.396,-62.07 10.234,-21.53 29.452,-26.175 38.855,-4.287 11.512,26.805 -31.853,103.156 -11.371,112.17 11.57,5.085 27.478,-10.698 37.47,-15.235 18.625,-8.473 43.168,-16.25 61.237,-4.179 16.215,10.819 26.585,28.84 26.129,48.633 C 107.558,5.477 87.765,20.482 67.381,23.18 43.392,26.352 21.216,8.838 0,0"
             style="fill:#df535b;fill-opacity:1;fill-rule:nonzero;stroke:none"
             id="path6816" />
        </g>
        <g
           id="g6818"
           transform="translate(1138.1323,3059.124)">
          <path
             d="m 0,0 c 0.233,-4.045 0.583,-8.013 1.05,-11.903 0.311,-4.046 0.584,-8.13 0.817,-12.254 0.234,-4.123 0.584,-8.13 1.05,-12.02 0.467,-3.89 2.724,-5.212 6.769,-3.968 3.423,1.09 6.379,2.49 8.869,4.202 1.867,1.244 3.151,2.139 3.851,2.684 0.7,0.544 1.906,1.517 3.618,2.917 l 3.501,3.034 c 0.933,0.934 1.906,1.984 2.917,3.151 1.012,1.167 2.062,2.295 3.151,3.385 l 0.35,0.35 0.584,0.583 c 0.311,0.311 0.544,0.623 0.7,0.934 l 3.268,3.967 c 0.933,1.245 1.906,2.49 2.917,3.735 1.011,1.245 2.062,2.567 3.151,3.968 l 3.734,4.668 c 9.803,12.759 17.816,26.451 24.04,41.078 3.891,9.802 7.158,19.8 9.803,29.991 2.645,10.192 5.135,20.5 7.469,30.926 l 0.7,4.201 c 0.311,1.867 0.7,3.89 1.167,6.068 0,0.778 0.078,1.517 0.233,2.218 0.156,0.7 0.312,1.517 0.467,2.45 0.934,5.913 1.867,9.881 2.801,11.904 0.623,1.244 1.634,2.411 3.034,3.501 3.268,2.022 8.986,3.034 17.155,3.034 8.169,0 14.043,-0.311 17.622,-0.934 4.201,-0.933 7.391,-2.023 9.569,-3.267 2.956,-2.334 4.318,-5.524 4.084,-9.57 -0.233,-4.045 -0.583,-7.935 -1.05,-11.67 -1.245,-11.514 -2.334,-20.772 -3.267,-27.774 -0.934,-7.002 -3.112,-16.182 -6.536,-27.541 -1.867,-6.224 -4.201,-12.526 -7.002,-18.905 -3.89,-8.87 -9.452,-20.034 -16.688,-33.493 -7.235,-13.46 -13.887,-23.69 -19.955,-30.692 -0.311,-0.311 -0.778,-0.934 -1.401,-1.867 -0.622,-0.623 -1.711,-1.751 -3.267,-3.384 -1.556,-1.634 -2.645,-2.685 -3.268,-3.151 l -3.501,-3.268 -3.501,-2.801 c -3.734,-2.956 -7.585,-5.679 -11.553,-8.169 -3.968,-2.489 -7.974,-4.901 -12.02,-7.235 -1.089,-0.623 -2.684,-1.517 -4.785,-2.684 -2.1,-1.167 -3.073,-2.14 -2.917,-2.918 0.156,-0.622 1.906,-1.944 5.251,-3.967 3.346,-2.023 5.485,-3.268 6.419,-3.735 6.691,-4.668 12.137,-8.791 16.338,-12.37 0.778,-0.933 1.556,-1.711 2.334,-2.334 0.778,-0.622 1.634,-1.4 2.567,-2.334 1.245,-1.556 2.723,-3.345 4.435,-5.368 1.711,-2.023 3.112,-3.734 4.201,-5.135 1.556,-2.334 2.84,-4.201 3.851,-5.601 1.011,-1.401 2.373,-3.345 4.084,-5.835 9.336,-15.405 16.494,-31.82 21.473,-49.247 4.979,-17.428 8.558,-35.01 10.736,-52.748 0.467,-4.513 0.934,-10.542 1.401,-18.089 0.467,-7.546 -0.156,-13.109 -1.867,-16.688 -2.023,-4.201 -5.68,-6.924 -10.97,-8.169 -4.979,-1.244 -12.993,-1.906 -24.04,-1.984 -11.047,-0.077 -17.816,1.984 -20.306,6.186 -1.244,1.711 -2.178,5.834 -2.801,12.37 -2.023,11.981 -4.512,24.896 -7.468,38.744 -0.934,4.201 -1.828,8.441 -2.684,12.72 -0.856,4.279 -1.751,8.519 -2.684,12.72 -3.268,12.293 -6.691,22.717 -10.27,31.276 -3.579,8.558 -9.025,17.349 -16.338,26.374 -3.423,4.045 -6.224,7.002 -8.402,8.869 -2.645,2.178 -5.368,3.968 -8.169,5.368 -4.357,2.023 -6.535,1.167 -6.535,-2.567 0,-3.268 0.116,-6.536 0.35,-9.803 0.233,-3.268 0.506,-6.535 0.817,-9.803 0.155,-4.201 0.544,-10.659 1.167,-19.372 0.466,-6.535 0.856,-12.993 1.167,-19.372 0.311,-6.379 0.7,-12.837 1.167,-19.372 0.622,-9.647 1.206,-19.333 1.75,-29.058 0.545,-9.725 1.206,-19.411 1.984,-29.058 0.623,-8.714 0.934,-15.405 0.934,-20.073 0,-4.823 -0.701,-7.546 -2.101,-8.169 -1.4,-0.622 -4.59,-1.167 -9.569,-1.633 -17.272,-1.868 -34.116,-3.268 -50.531,-4.202 -16.416,-0.933 -33.182,-1.711 -50.297,-2.334 -7.313,-0.466 -11.515,2.568 -12.604,9.103 -0.467,3.112 -0.817,6.379 -1.05,9.803 -0.234,3.423 -0.428,6.768 -0.584,10.036 -0.933,13.537 -1.75,27.152 -2.45,40.845 -0.701,13.692 -1.362,27.307 -1.984,40.844 -0.623,13.537 -1.323,27.191 -2.101,40.962 -0.778,13.77 -1.4,27.502 -1.867,41.195 l -3.734,82.623 c -1.245,27.541 -2.334,55.082 -3.268,82.623 l -0.934,20.539 c -0.311,6.846 -0.544,13.693 -0.7,20.539 -0.156,2.801 -0.35,6.263 -0.583,10.386 -0.234,4.124 -0.039,7.585 0.583,10.386 0.467,2.801 2.256,4.512 5.368,5.135 1.401,0.311 4.668,0.7 9.803,1.167 28.786,2.334 56.249,3.657 82.39,3.968 h 9.336 c 4.201,0 6.846,-1.634 7.935,-4.902 0.467,-1.867 0.778,-3.812 0.934,-5.835 0.156,-2.022 0.389,-3.89 0.7,-5.601 0.934,-12.137 1.828,-24.274 2.684,-36.41 C -6.146,84.957 -5.251,72.898 -4.318,60.917 -3.851,52.67 -3.345,44.501 -2.801,36.41 -2.256,28.319 -1.595,20.306 -0.817,12.37 -0.506,8.169 -0.233,4.045 0,0"
             style="fill:#7f47dd;fill-opacity:1;fill-rule:nonzero;stroke:none"
             id="path6820" />
        </g>
        <g
           id="g6822"
           transform="translate(1216.6411,3029.6807)">
          <path
             d="m 0,0 -0.035,-0.026 z m 24.37,-10.34 -0.097,-0.098 c 0.03,0.031 0.063,0.063 0.097,0.098 m -46.244,-18.174 v -0.001 z m -47.391,-58.742 v -0.001 z m 1.859,-143.768 z m -125.43,393.453 c -0.014,-0.883 0.005,-1.908 0.072,-3.093 0.234,-4.128 0.428,-7.595 0.584,-10.399 l 0.016,-0.41 c 0.153,-6.72 0.385,-13.536 0.691,-20.256 l 0.939,-20.683 c 0.927,-27.351 2.025,-55.102 3.262,-82.482 l 3.74,-82.761 c 0.461,-13.529 1.085,-27.295 1.854,-40.916 0.777,-13.749 1.486,-27.575 2.108,-41.092 0.62,-13.483 1.286,-27.203 1.981,-40.781 0.693,-13.555 1.513,-27.222 2.437,-40.623 l 0.015,-0.265 c 0.152,-3.174 0.343,-6.465 0.569,-9.781 0.171,-2.511 0.414,-4.948 0.723,-7.263 h 0.006 c 16.959,0.616 33.796,1.397 50.041,2.322 16.129,0.917 32.917,2.313 49.897,4.149 l 0.177,0.017 c 0.103,0.01 0.205,0.02 0.305,0.029 -0.092,4.16 -0.382,9.677 -0.866,16.455 -0.781,9.698 -1.454,19.557 -2,29.305 -0.54,9.645 -1.127,19.386 -1.744,28.952 -0.466,6.52 -0.865,13.132 -1.179,19.568 -0.304,6.25 -0.691,12.673 -1.149,19.091 -0.612,8.561 -1.008,15.096 -1.177,19.435 -0.305,3.24 -0.577,6.515 -0.807,9.74 -0.254,3.547 -0.382,7.145 -0.382,10.693 0,8.395 4.913,12.437 7.025,13.785 3.369,2.15 9.1,3.915 17.274,0.12 l 0.326,-0.158 c 3.627,-1.813 7.168,-4.134 10.525,-6.899 l 0.189,-0.159 c 2.71,-2.322 5.918,-5.686 9.809,-10.284 l 0.17,-0.205 c 8.029,-9.909 14.138,-19.808 18.158,-29.422 3.781,-9.042 7.421,-20.106 10.818,-32.886 l 0.122,-0.5 c 0.947,-4.258 1.868,-8.626 2.739,-12.98 0.837,-4.181 1.721,-8.374 2.629,-12.46 l 0.022,-0.102 c 2.979,-13.95 5.525,-27.163 7.57,-39.273 l 0.118,-0.895 c 0.309,-3.243 0.646,-5.188 0.882,-6.274 1.293,-0.401 4.177,-0.999 9.693,-0.968 12.46,0.088 18.35,0.925 21.097,1.612 l 0.168,0.041 c 2.125,0.5 2.415,1.101 2.571,1.423 0.033,0.07 1.147,2.504 0.653,10.494 -0.45,7.274 -0.903,13.146 -1.346,17.456 -2.09,16.97 -5.567,34.033 -10.334,50.718 -4.617,16.162 -11.332,31.602 -19.96,45.899 -1.545,2.245 -2.793,4.027 -3.712,5.299 -1.053,1.458 -2.315,3.289 -3.852,5.588 -0.944,1.2 -2.156,2.675 -3.609,4.393 -1.574,1.861 -2.976,3.552 -4.176,5.04 -0.509,0.489 -0.867,0.796 -1.094,0.976 -1.142,0.914 -2.257,1.976 -3.327,3.168 -3.658,3.063 -8.379,6.624 -14.053,10.602 -1.067,0.578 -2.856,1.608 -6.368,3.732 -5.34,3.229 -9.535,6.136 -10.909,11.63 l -0.131,0.579 c -0.756,3.779 -0.579,10.92 9.104,16.299 2.043,1.135 3.594,2.004 4.653,2.61 3.854,2.224 7.764,4.578 11.578,6.971 3.567,2.238 7.079,4.721 10.439,7.381 l 3.078,2.463 4.001,3.669 c 0.182,0.165 0.736,0.688 1.898,1.908 1.097,1.152 1.976,2.067 2.638,2.747 0.648,0.914 1.225,1.638 1.805,2.266 5.396,6.277 11.526,15.772 18.222,28.228 7.044,13.104 12.511,24.07 16.25,32.595 2.586,5.889 4.764,11.767 6.477,17.476 3.219,10.683 5.276,19.291 6.118,25.601 0.916,6.873 2.003,16.114 3.23,27.466 l 0.024,0.207 c 0.388,3.105 0.693,6.377 0.908,9.741 -0.864,0.279 -2.013,0.602 -3.512,0.944 -1.776,0.282 -5.982,0.705 -15.218,0.705 -4.975,0 -7.802,-0.428 -9.276,-0.775 -0.318,-1.266 -0.791,-3.471 -1.366,-7.113 l -0.018,-0.108 c -0.175,-1.045 -0.349,-1.969 -0.53,-2.811 v -1.124 l -0.277,-1.295 c -0.425,-1.984 -0.782,-3.835 -1.06,-5.502 L 25.298,126.14 C 22.946,115.634 20.4,105.092 17.73,94.806 14.969,84.164 11.509,73.579 7.447,63.343 L 7.331,63.06 C 0.723,47.532 -7.9,32.796 -18.299,19.261 l -0.152,-0.194 -3.679,-4.6 c -1.129,-1.449 -2.217,-2.819 -3.265,-4.109 -0.904,-1.113 -1.786,-2.241 -2.62,-3.353 L -28.365,6.56 -31.099,3.24 C -31.687,2.366 -32.37,1.539 -33.143,0.766 l -0.934,-0.934 c -0.876,-0.876 -1.731,-1.795 -2.543,-2.731 -1.199,-1.384 -2.385,-2.664 -3.525,-3.804 l -0.652,-0.608 -3.772,-3.262 c -1.826,-1.494 -3.114,-2.53 -3.861,-3.111 -0.602,-0.468 -1.725,-1.306 -4.522,-3.171 -3.473,-2.375 -7.537,-4.312 -12.08,-5.758 l -0.115,-0.035 c -7.224,-2.224 -12.33,-0.354 -15.344,1.605 -2.42,1.573 -6.613,5.33 -7.511,12.82 -0.496,4.132 -0.873,8.439 -1.12,12.803 -0.222,3.925 -0.484,7.874 -0.78,11.742 -0.479,4.042 -0.844,8.213 -1.086,12.401 -0.225,3.903 -0.492,7.946 -0.793,12.021 -0.781,7.987 -1.454,16.152 -2,24.27 -0.543,8.07 -1.054,16.315 -1.518,24.509 -0.927,11.89 -1.828,24.046 -2.681,36.135 -0.837,11.878 -1.723,23.895 -2.632,35.73 -0.287,1.696 -0.515,3.506 -0.68,5.397 h -5.729 c -25.691,-0.307 -53.075,-1.627 -81.395,-3.922 -1.845,-0.168 -3.291,-0.312 -4.42,-0.434 m 18.104,-425.841 c -12.596,-0.001 -21.547,7.357 -23.587,19.591 l -0.032,0.201 c -0.514,3.429 -0.904,7.065 -1.159,10.807 -0.235,3.438 -0.433,6.854 -0.592,10.156 -0.931,13.507 -1.756,27.278 -2.455,40.937 -0.696,13.62 -1.365,27.384 -1.987,40.908 -0.618,13.431 -1.322,27.168 -2.094,40.831 -0.779,13.783 -1.41,27.714 -1.877,41.405 l -3.732,82.554 c -1.24,27.45 -2.34,55.272 -3.27,82.694 l -0.931,20.465 c -0.31,6.839 -0.548,13.775 -0.705,20.617 -0.153,2.761 -0.344,6.15 -0.571,10.169 -0.294,5.197 -0.033,9.622 0.798,13.516 1.431,7.726 7.03,13.29 15.053,14.942 1.447,0.314 3.985,0.724 11.251,1.385 l 0.122,0.01 c 28.939,2.347 56.949,3.695 83.251,4.008 l 0.149,0.001 h 9.336 c 9.587,0 16.986,-5.027 19.794,-13.448 l 0.268,-0.921 c 0.634,-2.536 1.061,-5.196 1.27,-7.908 0.122,-1.587 0.303,-3.043 0.536,-4.325 l 0.115,-0.635 0.05,-0.642 c 0.929,-12.081 1.834,-24.358 2.689,-36.489 0.852,-12.074 1.752,-24.214 2.678,-36.085 l 0.017,-0.265 c 0.462,-8.149 0.97,-16.35 1.509,-24.374 0.533,-7.917 1.19,-15.877 1.953,-23.66 l 0.025,-0.297 c 0.316,-4.258 0.595,-8.488 0.831,-12.572 0.217,-3.771 0.548,-7.517 0.982,-11.135 l 0.052,-0.531 c 0.316,-4.118 0.597,-8.325 0.833,-12.505 0.004,-0.073 0.009,-0.145 0.013,-0.217 0.223,0.161 0.334,0.245 0.374,0.276 0.634,0.493 1.713,1.365 3.237,2.612 l 3.005,2.604 c 0.638,0.652 1.316,1.392 2.02,2.205 1.199,1.383 2.464,2.742 3.759,4.037 l 0.118,0.118 3.797,4.61 c 0.974,1.294 1.996,2.599 3.041,3.885 0.958,1.179 1.953,2.433 2.986,3.76 l 0.105,0.134 3.657,4.57 c 9.05,11.797 16.558,24.621 22.317,38.121 3.658,9.234 6.775,18.781 9.265,28.378 2.571,9.906 5.025,20.058 7.295,30.18 l 0.643,3.861 c 0.288,1.73 0.64,3.595 1.048,5.557 0.075,1.154 0.236,2.289 0.481,3.388 0.103,0.464 0.214,1.052 0.331,1.747 1.152,7.284 2.321,11.952 3.789,15.131 l 0.17,0.354 c 1.461,2.921 3.661,5.537 6.539,7.775 l 0.526,0.41 0.569,0.352 c 5.406,3.347 12.948,4.906 23.734,4.906 9.097,0 15.378,-0.355 19.764,-1.119 l 0.569,-0.112 c 5.484,-1.219 9.755,-2.729 13.06,-4.617 l 0.81,-0.463 0.733,-0.579 c 6.155,-4.858 9.286,-11.997 8.819,-20.1 C 82.166,143.49 81.791,139.32 81.299,135.358 80.054,123.849 78.946,114.436 78.005,107.38 76.974,99.643 74.698,89.995 71.048,77.884 69.048,71.218 66.515,64.375 63.523,57.561 59.52,48.433 53.758,36.862 46.399,23.175 38.655,8.769 31.616,-2.013 24.88,-9.785 l -0.128,-0.148 c -0.094,-0.132 -0.199,-0.289 -0.318,-0.468 l -0.687,-1.029 -0.874,-0.875 c -0.583,-0.582 -1.6,-1.638 -3.056,-3.166 -1.79,-1.88 -3.054,-3.102 -4.146,-4.001 l -3.865,-3.557 -3.501,-2.801 c -4.12,-3.262 -8.382,-6.276 -12.718,-8.996 -1.256,-0.789 -2.522,-1.573 -3.795,-2.351 5.34,-3.831 9.883,-7.338 13.542,-10.455 l 0.814,-0.693 0.685,-0.821 c 0.348,-0.418 0.54,-0.575 0.542,-0.577 1.148,-0.92 2.325,-1.984 3.594,-3.254 l 0.49,-0.49 0.433,-0.541 c 1.157,-1.447 2.576,-3.163 4.216,-5.102 1.841,-2.176 3.321,-3.986 4.524,-5.534 l 0.535,-0.74 c 1.462,-2.194 2.668,-3.95 3.584,-5.218 1.072,-1.484 2.502,-3.527 4.252,-6.072 l 0.389,-0.602 c 9.869,-16.284 17.541,-33.878 22.801,-52.292 5.135,-17.972 8.878,-36.362 11.124,-54.659 l 0.027,-0.237 c 0.483,-4.661 0.968,-10.92 1.443,-18.603 0.614,-9.932 -0.36,-17.193 -3.066,-22.852 -2.574,-5.346 -7.996,-12.238 -19.301,-14.924 -6,-1.487 -14.8,-2.251 -26.898,-2.336 -5.797,-0.045 -23.315,-0.163 -30.871,11.859 -2.476,3.692 -3.865,8.874 -4.722,17.547 -1.971,11.627 -4.421,24.319 -7.284,37.735 -0.942,4.242 -1.86,8.591 -2.728,12.926 -0.819,4.096 -1.684,8.202 -2.573,12.209 -3.086,11.579 -6.335,21.476 -9.655,29.417 -3.056,7.307 -7.84,15.03 -14.224,22.963 0.168,-4.068 0.542,-10.179 1.114,-18.184 0.472,-6.605 0.87,-13.217 1.184,-19.654 0.305,-6.249 0.692,-12.672 1.15,-19.09 0.628,-9.723 1.219,-19.535 1.763,-29.25 0.535,-9.565 1.196,-19.239 1.963,-28.753 l 0.008,-0.113 c 0.65,-9.092 0.966,-15.949 0.966,-20.963 0,-3.799 0,-15.358 -9.523,-19.592 -2.808,-1.248 -6.692,-2.016 -13.39,-2.648 -17.371,-1.876 -34.555,-3.304 -51.078,-4.244 -16.367,-0.931 -33.324,-1.718 -50.403,-2.34 -0.659,-0.039 -1.31,-0.058 -1.951,-0.058"
             style="fill:#7f47dd;fill-opacity:1;fill-rule:nonzero;stroke:none"
             id="path6824" />
        </g>
        <g
           id="g6826"
           transform="translate(1480.1509,2820.124)">
          <path
             d="m 0,0 c -0.078,-9.958 -0.583,-15.949 -1.517,-17.972 -0.156,-0.466 -0.7,-1.167 -1.634,-2.1 l -8.636,-8.869 -5.601,-4.202 c -4.512,-2.334 -10.581,-3.89 -18.205,-4.668 -8.092,-1.089 -17.661,-2.139 -28.708,-3.15 -11.048,-1.012 -20.539,-1.44 -28.475,-1.284 -5.757,0 -10.269,0.7 -13.537,2.1 -2.645,0.623 -4.201,1.634 -4.668,3.035 -0.623,1.711 -0.934,7.741 -0.934,18.088 V 0.467 l -0.233,92.192 c 0,10.27 -0.039,20.578 -0.117,30.925 -0.077,10.348 -0.116,20.656 -0.116,30.926 v 30.808 30.809 c 0,19.761 -0.039,39.561 -0.117,59.4 -0.078,19.839 -0.117,39.639 -0.117,59.4 v 10.153 10.386 c 0.467,5.601 0.778,8.713 0.934,9.336 1.089,3.423 2.567,6.302 4.434,8.635 2.49,2.801 4.746,4.824 6.769,6.069 4.824,3.112 11.125,5.368 18.905,6.768 10.737,1.868 23.613,2.996 38.628,3.385 15.015,0.389 28.28,0.583 39.794,0.583 2.645,0 4.046,-0.544 4.201,-1.634 0,-0.466 0.039,-0.933 0.117,-1.4 0.078,-0.467 0.194,-0.934 0.35,-1.4 0,-2.49 0.078,-4.435 0.233,-5.835 V 358.5 337.027 L 0.117,19.139 C 0.117,16.338 0.078,9.958 0,0"
             style="fill:#fb0294;fill-opacity:1;fill-rule:nonzero;stroke:none"
             id="path6828" />
        </g>
        <g
           id="g6830"
           transform="translate(1689.7153,3026.4482)">
          <path
             d="m 0,0 c 5.291,-1.711 10.464,-1.323 15.521,1.167 5.057,2.49 9.453,5.368 13.187,8.636 4.045,3.423 8.013,7.391 11.903,11.903 0.311,0.467 0.856,1.089 1.634,1.867 3.423,4.201 5.368,6.691 5.835,7.469 7.002,10.581 12.37,23.106 16.105,37.577 1.711,7.469 3.073,15.093 4.084,22.873 1.011,7.78 1.984,15.716 2.918,23.807 0.466,3.89 1.011,9.764 1.633,17.621 0.623,7.858 1.868,13.577 3.735,17.155 1.556,2.801 4.357,4.357 8.402,4.668 3.579,0.311 9.88,0.428 18.905,0.35 9.025,-0.077 15.327,-0.817 18.906,-2.217 3.111,-1.556 4.668,-4.435 4.668,-8.636 0.155,-5.757 -0.506,-13.693 -1.984,-23.806 -1.478,-10.114 -2.762,-18.05 -3.851,-23.807 -2.645,-13.07 -6.03,-27.113 -10.153,-42.128 C 107.324,39.483 102.384,26.141 96.627,14.471 91.803,5.135 86.668,-3.112 81.223,-10.27 l -4.668,-5.601 -1.634,-1.634 c -6.846,-7.469 -14.782,-12.914 -23.807,-16.338 -2.023,-0.622 -3.578,-1.244 -4.668,-1.867 -1.244,-0.778 -2.1,-2.256 -2.567,-4.435 -0.778,-3.267 -1.245,-11.825 -1.4,-25.673 -0.156,-13.849 -0.234,-22.64 -0.234,-26.374 -0.156,-8.87 -0.311,-17.661 -0.467,-26.374 -0.155,-8.714 -0.233,-17.428 -0.233,-26.141 -0.311,-8.869 -0.584,-17.661 -0.817,-26.374 -0.233,-8.713 -0.428,-17.427 -0.583,-26.141 0,-6.224 -0.312,-14.781 -0.934,-25.674 -0.934,-12.914 -3.073,-20.149 -6.419,-21.706 -3.345,-1.556 -10.853,-2.567 -22.522,-3.034 -5.758,-0.467 -16.766,-0.7 -33.026,-0.7 -16.261,0 -26.724,0.7 -31.392,2.101 -3.579,0.933 -6.146,2.956 -7.703,6.068 -2.334,4.201 -3.578,12.098 -3.734,23.69 -0.156,11.592 -0.233,20.189 -0.233,25.79 -0.311,17.583 -0.234,35.127 0.233,52.632 0.467,17.505 1.089,35.049 1.867,52.631 0.311,5.913 0.934,14.16 1.867,24.74 0.467,5.135 0.584,9.103 0.351,11.904 -0.234,2.801 -1.595,6.224 -4.085,10.269 -1.4,2.023 -3.307,4.552 -5.718,7.586 -2.412,3.034 -4.396,5.562 -5.952,7.585 -4.824,6.069 -9.569,12.448 -14.237,19.139 -3.735,5.29 -6.535,9.336 -8.403,12.137 -5.912,9.335 -10.813,18.049 -14.704,26.14 -3.89,8.091 -7.313,17.816 -10.269,29.175 -2.957,10.892 -5.174,22.445 -6.652,34.66 -1.478,12.214 -2.606,24.079 -3.384,35.593 -0.934,11.203 -1.401,19.683 -1.401,25.44 0,7.313 0.156,11.593 0.467,12.837 0.778,3.579 2.957,5.913 6.535,7.002 6.535,2.178 18.906,3.579 37.111,4.201 18.205,0.623 30.886,0.934 38.044,0.934 5.757,0 10.036,-0.233 12.836,-0.7 3.891,-0.778 6.38,-2.723 7.469,-5.835 0.934,-2.801 1.401,-6.885 1.401,-12.254 v -12.953 c -0.311,-17.427 -0.778,-34.777 -1.401,-52.048 -0.467,-17.738 0.311,-33.882 2.334,-48.43 C -29.486,37.149 -24.04,23.807 -15.171,11.67 -10.503,5.602 -5.446,1.711 0,0"
             style="fill:#7f47dd;fill-opacity:1;fill-rule:nonzero;stroke:none"
             id="path6832" />
        </g>
        <g
           id="g6834"
           transform="translate(1740.729,3041.2231)">
          <path
             d="M 0,0 -0.047,-0.071 C -0.031,-0.047 -0.015,-0.023 0,0 m -101.897,-248.944 0.327,-0.094 c 1.23,-0.369 6.871,-1.573 27.8,-1.573 15.848,0 26.62,0.222 32.016,0.659 l 0.51,0.032 c 8.263,0.33 12.869,0.893 15.33,1.327 0.505,1.938 1.184,5.516 1.637,11.732 0.603,10.557 0.908,18.922 0.908,24.864 l 0.002,0.224 c 0.156,8.729 0.353,17.561 0.586,26.252 0.231,8.617 0.504,17.45 0.812,26.259 0.002,8.685 0.081,17.479 0.236,26.144 l 0.464,26.263 c 0.002,3.841 0.081,12.722 0.235,26.402 0.216,19.243 0.979,25.157 1.706,28.287 1.515,6.891 5.255,10.481 8.136,12.281 l 0.422,0.253 c 1.815,1.037 4.032,1.964 6.768,2.828 7.101,2.752 13.219,6.997 18.695,12.971 l 0.375,0.392 1.233,1.233 4.122,4.947 c 4.907,6.478 9.626,14.077 14.032,22.592 5.358,10.881 10.043,23.565 13.925,37.703 4.021,14.641 7.365,28.509 9.939,41.22 1.05,5.555 2.311,13.364 3.75,23.212 1.198,8.197 1.826,14.805 1.873,19.687 -2.209,0.311 -5.741,0.619 -11.201,0.666 -9.451,0.081 -14.331,-0.071 -16.842,-0.237 -0.533,-1.82 -1.204,-5.028 -1.631,-10.424 C 33.625,109.055 33.075,103.126 32.584,99.035 31.656,90.99 30.667,82.92 29.651,75.106 28.594,66.97 27.148,58.877 25.355,51.052 L 25.274,50.721 C 21.231,35.053 15.289,21.204 7.611,9.551 6.953,8.497 5.74,6.816 0.922,0.902 L 0.52,0.409 0.07,-0.041 c -0.112,-0.112 -0.215,-0.215 -0.304,-0.31 l -0.195,-0.294 -0.506,-0.586 c -4.274,-4.957 -8.721,-9.404 -13.219,-13.218 -4.52,-3.942 -9.841,-7.431 -15.818,-10.373 -7.924,-3.902 -16.515,-4.544 -24.85,-1.859 -7.89,2.496 -15.046,7.863 -21.27,15.954 l -0.185,0.247 c -10.058,13.764 -16.326,29.134 -18.626,45.681 -2.108,15.157 -2.932,32.141 -2.449,50.481 l 0.004,0.121 c 0.616,17.08 1.084,34.479 1.392,51.714 v 12.837 c 0,2.753 -0.141,4.678 -0.305,5.987 -1.727,0.156 -4.515,0.302 -8.901,0.302 -6.987,0 -19.643,-0.311 -37.617,-0.926 -18.996,-0.65 -27.869,-2.064 -31.924,-3.089 -0.059,-1.548 -0.115,-4.151 -0.115,-8.459 0,-5.385 0.456,-13.595 1.357,-24.402 l 0.015,-0.196 c 0.759,-11.235 1.876,-22.989 3.322,-34.934 1.399,-11.56 3.52,-22.625 6.306,-32.887 l 0.033,-0.125 c 2.74,-10.528 5.916,-19.581 9.438,-26.907 3.646,-7.583 8.329,-15.908 13.922,-24.747 1.797,-2.691 4.532,-6.639 8.132,-11.739 4.537,-6.503 9.17,-12.732 13.81,-18.568 l 0.122,-0.157 c 1.505,-1.957 3.466,-4.456 5.83,-7.429 2.609,-3.283 4.64,-5.981 6.21,-8.249 l 0.368,-0.563 c 3.565,-5.792 5.494,-10.955 5.896,-15.783 0.296,-3.557 0.179,-8.161 -0.359,-14.073 -0.911,-10.328 -1.528,-18.487 -1.83,-24.219 -0.771,-17.418 -1.395,-35.032 -1.857,-52.354 -0.46,-17.236 -0.537,-34.757 -0.231,-52.077 l 0.002,-0.221 c 0,-5.532 0.078,-14.153 0.232,-25.623 0.189,-14.078 2.082,-17.643 2.162,-17.788 z m 28.127,-26.667 c -22.84,0 -30.635,1.356 -34.768,2.564 -6.906,1.861 -12.218,6.1 -15.387,12.278 -3.342,6.18 -4.987,15.52 -5.173,29.349 -0.154,11.505 -0.233,20.199 -0.234,25.846 -0.311,17.653 -0.23,35.509 0.238,53.077 0.466,17.487 1.097,35.268 1.875,52.851 l 0.005,0.104 c 0.317,6.028 0.956,14.5 1.898,25.182 0.526,5.791 0.442,8.603 0.345,9.767 v -10e-4 c -0.002,0 -0.229,1.375 -2.102,4.476 -1.223,1.746 -2.913,3.978 -5.03,6.64 -2.414,3.038 -4.436,5.615 -6.013,7.663 -4.941,6.22 -9.867,12.843 -14.641,19.687 -3.797,5.378 -6.607,9.438 -8.552,12.355 l -0.16,0.246 c -6.143,9.701 -11.328,18.923 -15.409,27.412 -4.212,8.761 -7.941,19.318 -11.083,31.375 -3.092,11.404 -5.441,23.642 -6.982,36.374 -1.494,12.346 -2.651,24.51 -3.44,36.154 -0.966,11.607 -1.435,20.238 -1.435,26.381 0,11.165 0.354,13.848 0.792,15.674 1.762,7.817 7.179,13.66 14.899,16.071 7.873,2.591 20.748,4.113 40.494,4.788 18.514,0.633 31.098,0.941 38.471,0.941 6.507,0 11.378,-0.285 14.892,-0.87 l 0.395,-0.073 c 8.271,-1.654 14.244,-6.612 16.816,-13.962 l 0.061,-0.177 c 1.374,-4.122 2.042,-9.423 2.042,-16.207 l -0.002,-13.176 c -0.311,-17.402 -0.783,-34.969 -1.404,-52.217 -0.444,-16.949 0.303,-32.531 2.22,-46.316 1.744,-12.539 6.309,-23.742 13.956,-34.247 3.022,-3.899 6.022,-6.337 8.92,-7.248 l 0.099,-0.032 c 2.183,-0.705 4.023,-0.559 6.153,0.488 4.056,1.998 7.58,4.295 10.477,6.829 l 0.157,0.135 c 3.412,2.888 6.832,6.294 10.171,10.131 0.582,0.773 1.273,1.571 2.115,2.442 3.294,4.05 4.302,5.399 4.575,5.777 l 0.161,0.246 c 6.177,9.333 11.016,20.65 14.383,33.64 1.598,6.996 2.888,14.236 3.835,21.523 1,7.695 1.974,15.645 2.895,23.628 0.451,3.759 0.984,9.519 1.591,17.176 0.774,9.773 2.399,16.748 5.113,21.95 l 0.155,0.288 c 3.601,6.482 10.099,10.406 18.303,11.055 4.017,0.345 10.575,0.472 20.039,0.392 10.807,-0.093 18.227,-1.07 23.353,-3.076 l 0.528,-0.207 0.508,-0.254 c 7.306,-3.654 11.519,-10.802 11.576,-19.631 0.162,-6.514 -0.53,-14.956 -2.114,-25.799 C 85.311,93.613 83.985,85.429 82.869,79.528 L 82.838,79.373 C 80.149,66.085 76.667,51.631 72.488,36.414 68.173,20.703 62.903,6.489 56.823,-5.834 L 56.719,-6.042 C 51.586,-15.975 46.014,-24.915 40.157,-32.613 l -0.345,-0.434 -5.031,-6.037 -1.851,-1.851 C 24.87,-49.667 15.377,-56.161 4.709,-60.239 4.443,-63.08 4.097,-68.944 3.964,-80.734 3.81,-94.456 3.731,-103.282 3.731,-106.967 l -0.002,-0.22 -0.466,-26.378 c -0.154,-8.589 -0.232,-17.309 -0.232,-25.917 l -0.008,-0.438 c -0.309,-8.812 -0.582,-17.651 -0.813,-26.27 -0.23,-8.581 -0.425,-17.301 -0.579,-25.92 -0.004,-6.425 -0.325,-15.264 -0.954,-26.274 l -0.012,-0.188 c -1.003,-13.869 -3.346,-27.362 -13.614,-32.138 -3.587,-1.669 -9.608,-3.468 -27.047,-4.181 -6.203,-0.484 -17.257,-0.72 -33.774,-0.72"
             style="fill:#7f47dd;fill-opacity:1;fill-rule:nonzero;stroke:none"
             id="path6836" />
        </g>
        <g
           id="g6838"
           transform="translate(2040.603,2915.584)">
          <path
             d="m 0,0 c 2.023,-3.734 3.112,-5.679 3.268,-5.835 l 3.501,-5.602 c 2.178,-3.578 4.745,-7.157 7.702,-10.736 l 7.002,-8.869 1.167,-1.167 9.336,-9.103 c 0.311,-0.466 0.661,-0.855 1.05,-1.167 0.389,-0.311 0.817,-0.622 1.284,-0.933 1.089,-1.089 3.734,-3.112 7.935,-6.068 12.137,-8.559 24.585,-14.394 37.344,-17.505 22.25,-6.069 44.112,-7.625 65.585,-4.668 9.336,1.089 19.216,3.345 29.641,6.768 10.737,3.268 20.773,8.48 30.109,15.638 l 1.4,0.934 c 0.467,0.311 0.934,0.7 1.401,1.167 1.4,1.4 3.345,3.189 5.835,5.368 2.489,2.178 4.434,4.123 5.835,5.835 l 3.967,4.901 c 3.268,3.734 7.08,9.18 11.437,16.338 9.958,16.805 17.038,35.943 21.239,57.416 4.201,21.473 4.746,42.245 1.634,62.317 -0.934,5.446 -2.023,10.426 -3.268,14.938 -1.556,5.135 -3.112,9.725 -4.668,13.77 -0.933,2.023 -1.867,4.085 -2.8,6.185 -0.934,2.101 -1.868,4.241 -2.801,6.419 -3.268,6.224 -5.368,10.269 -6.302,12.137 -2.49,4.512 -4.94,8.83 -7.352,12.953 -2.412,4.124 -5.174,8.208 -8.286,12.254 l -6.301,7.702 -5.835,5.601 -1.167,1.167 c -1.245,0.934 -2.101,1.634 -2.568,2.101 -6.846,5.601 -14.47,10.503 -22.873,14.704 -8.402,4.201 -16.727,7.702 -24.973,10.503 -19.45,6.535 -40.768,9.725 -63.952,9.569 -15.404,-0.311 -29.33,-4.745 -41.778,-13.303 -1.089,-0.778 -2.878,-1.945 -5.368,-3.501 -5.135,-3.424 -9.569,-6.691 -13.304,-9.803 -1.867,-1.712 -3.462,-3.151 -4.784,-4.318 -1.323,-1.167 -2.84,-2.684 -4.552,-4.551 l -1.167,-1.167 -0.7,-0.701 -0.467,-0.466 -4.201,-4.902 c -1.4,-1.556 -2.645,-3.267 -3.734,-5.134 C 12.759,184.852 10.347,181.04 7.235,175.749 -1.478,160.345 -8.286,141.556 -13.187,119.383 -18.088,97.21 -19.528,75.932 -17.505,55.549 -16.26,40.767 -12.448,26.374 -6.068,12.37 -3.89,7.391 -1.867,3.268 0,0 m 211.459,-107.83 c -8.558,-4.668 -18.399,-9.258 -29.525,-13.771 -11.125,-4.512 -21.434,-7.702 -30.925,-9.569 -49.792,-10.269 -98.183,-6.535 -145.174,11.203 -14.471,5.446 -28.864,12.059 -43.179,19.839 -14.315,7.78 -26.841,16.26 -37.577,25.44 -4.357,3.268 -7.469,5.991 -9.336,8.169 l -15.171,16.105 c -0.622,0.622 -1.206,1.245 -1.75,1.867 -0.545,0.623 -1.051,1.323 -1.517,2.101 -11.67,14.937 -21.123,32.442 -28.358,52.514 -7.236,20.073 -11.553,40.145 -12.954,60.217 -1.711,23.34 1.867,47.691 10.736,73.054 8.092,23.34 21.084,45.202 38.978,65.585 0.156,0.156 0.272,0.311 0.35,0.467 0.078,0.155 0.273,0.389 0.584,0.7 l 5.601,6.302 c 1.09,1.089 2.684,2.839 4.785,5.251 2.1,2.412 3.851,4.318 5.251,5.718 l 10.503,10.737 c 0.156,0.155 0.35,0.389 0.584,0.7 0.233,0.311 0.583,0.7 1.05,1.167 l 13.07,11.436 c 3.112,2.645 7.002,5.602 11.67,8.869 6.069,4.513 13.382,8.986 21.94,13.421 8.558,4.434 16.415,8.286 23.573,11.553 22.25,9.492 45.202,14.393 68.853,14.704 50.258,0.623 94.448,-11.125 132.57,-35.243 5.29,-3.579 10.736,-7.469 16.338,-11.67 3.734,-2.956 6.379,-5.057 7.935,-6.302 l 14.704,-13.07 c 2.49,-2.334 4.824,-4.668 7.002,-7.002 l 8.636,-8.869 0.35,-0.7 c 0.078,-0.156 0.273,-0.311 0.584,-0.467 l 7.002,-8.169 c 15.404,-18.361 28.007,-40.767 37.81,-67.219 11.514,-32.52 14.86,-65.274 10.036,-98.26 -3.112,-20.851 -8.402,-38.822 -15.871,-53.916 -2.023,-4.201 -3.578,-7.391 -4.668,-9.569 -4.045,-7.313 -7.508,-13.264 -10.386,-17.855 -2.878,-4.59 -6.73,-9.919 -11.553,-15.988 -0.778,-0.777 -1.323,-1.478 -1.634,-2.1 l -3.268,-3.735 c -0.933,-1.089 -3.15,-3.384 -6.651,-6.885 -3.501,-3.501 -5.952,-5.874 -7.353,-7.118 l -5.601,-4.668 c -10.425,-8.403 -23.107,-16.727 -38.044,-24.974"
             style="fill:#fb0294;fill-opacity:1;fill-rule:nonzero;stroke:none"
             id="path6840" />
        </g>
        <g
           id="g6842"
           transform="translate(2644.3774,2992.7222)">
          <path
             d="m 0,0 c 2.567,-7.08 5.018,-14.043 7.352,-20.889 0.778,-2.334 1.556,-4.746 2.334,-7.236 0.778,-2.489 1.634,-4.823 2.567,-7.001 0.623,-1.868 1.478,-4.241 2.568,-7.119 1.089,-2.879 2.334,-4.707 3.734,-5.485 1.867,-1.089 3.384,0.156 4.551,3.734 1.167,3.579 1.984,6.146 2.451,7.703 1.245,5.445 2.334,10.58 3.268,15.404 1.867,11.203 3.578,22.134 5.134,32.792 1.557,10.659 3.268,21.59 5.135,32.793 l 2.334,16.338 c 0.778,5.445 1.634,10.969 2.568,16.571 2.334,16.494 4.745,33.026 7.235,49.597 2.49,16.571 4.824,33.182 7.002,49.831 0.467,4.668 1.128,10.113 1.984,16.338 0.856,6.224 2.139,11.436 3.851,15.637 1.867,4.824 5.368,7.702 10.503,8.636 3.734,0.467 9.725,0.623 17.971,0.467 8.247,-0.156 14.315,-0.467 18.206,-0.934 6.068,-0.933 9.958,-3.345 11.669,-7.235 1.557,-3.734 2.646,-9.064 3.268,-15.988 0.623,-6.924 1.245,-12.564 1.867,-16.921 0.467,-5.758 0.973,-11.514 1.517,-17.272 0.545,-5.757 1.128,-11.436 1.751,-17.038 1.089,-11.514 2.334,-22.912 3.734,-34.193 1.401,-11.28 2.801,-22.523 4.201,-33.726 2.801,-22.406 5.68,-44.773 8.636,-67.102 2.957,-22.328 5.913,-44.618 8.869,-66.869 0.623,-5.757 1.284,-11.436 1.984,-17.038 0.7,-5.601 1.361,-11.203 1.984,-16.804 l 3.968,-35.71 c 1.711,-15.405 2.178,-26.841 1.4,-34.31 -0.778,-6.691 -3.112,-10.658 -7.002,-11.903 -4.201,-1.556 -9.88,-2.295 -17.038,-2.217 -7.158,0.077 -12.837,0.739 -17.038,1.983 -5.29,1.401 -8.791,4.202 -10.503,8.403 -1.711,3.578 -2.917,8.791 -3.618,15.638 -0.7,6.846 -1.206,12.525 -1.517,17.038 -0.622,5.912 -1.167,11.786 -1.633,17.621 -0.467,5.835 -0.934,11.787 -1.401,17.855 -0.467,5.757 -0.894,11.592 -1.283,17.505 -0.39,5.913 -0.817,11.826 -1.284,17.738 -0.623,5.913 -1.09,11.865 -1.401,17.855 -0.311,5.991 -0.622,12.02 -0.933,18.089 -0.467,5.912 -0.856,11.903 -1.167,17.971 -0.311,6.069 -0.545,12.137 -0.7,18.205 -0.311,6.069 -0.584,12.137 -0.817,18.206 -0.234,6.068 -0.506,12.136 -0.817,18.205 l -0.584,8.752 c -0.233,3.501 -0.661,6.263 -1.283,8.286 -1.245,3.423 -2.607,3.228 -4.085,-0.584 C 90.014,57.805 89.119,55.276 88.808,54.032 86.318,45.94 83.984,35.399 81.806,22.406 79.628,9.414 77.916,-1.439 76.671,-10.153 75.738,-15.754 74.882,-21.317 74.104,-26.841 73.326,-32.365 72.548,-37.85 71.77,-43.295 70.992,-48.897 70.175,-54.499 69.319,-60.1 68.463,-65.702 67.802,-71.303 67.335,-76.905 l -2.334,-16.804 -2.334,-16.805 c -0.777,-5.602 -1.478,-11.242 -2.1,-16.922 -0.623,-5.679 -1.323,-11.319 -2.101,-16.921 -0.933,-5.29 -2.1,-12.643 -3.501,-22.056 -1.4,-9.414 -3.967,-16.066 -7.702,-19.956 -4.357,-4.357 -9.725,-6.535 -16.104,-6.535 -6.224,0 -11.359,2.645 -15.405,7.936 -4.045,5.135 -7.896,13.264 -11.553,24.39 -3.657,11.125 -6.418,19.955 -8.285,26.491 -6.38,21.939 -13.771,45.979 -22.173,72.12 -4.201,13.07 -8.247,24.818 -12.137,35.243 -1.089,2.801 -2.14,5.679 -3.151,8.636 -1.011,2.956 -1.984,5.835 -2.917,8.635 -1.09,2.801 -2.179,5.68 -3.268,8.636 -1.089,2.957 -2.101,5.835 -3.034,8.636 -1.09,2.801 -2.178,5.679 -3.268,8.636 -1.089,2.956 -2.1,5.912 -3.034,8.869 -1.4,3.89 -3.423,9.88 -6.068,17.971 -2.645,8.092 -4.746,13.693 -6.302,16.805 -2.023,3.734 -3.423,3.034 -4.201,-2.1 -0.778,-6.847 -0.817,-17.895 -0.117,-33.143 0.7,-15.249 1.206,-25.907 1.517,-31.976 0.311,-8.402 0.7,-16.765 1.167,-25.09 0.467,-8.325 0.934,-16.688 1.401,-25.09 0.777,-16.961 1.633,-33.921 2.567,-50.881 0.934,-16.961 1.4,-33.843 1.4,-50.648 0,-5.134 -0.116,-10.814 -0.35,-17.038 -0.233,-6.224 -0.972,-11.67 -2.217,-16.338 -1.711,-5.445 -4.318,-8.985 -7.819,-10.619 -3.501,-1.634 -7.819,-3.151 -12.954,-4.552 -8.091,-2.022 -18.36,-3.734 -30.808,-5.134 -18.205,-1.867 -36.177,-2.257 -53.915,-1.167 -4.046,0.155 -6.808,0.467 -8.286,0.933 -1.478,0.467 -2.528,2.801 -3.151,7.002 -0.622,3.579 -1.089,9.57 -1.4,17.972 -0.467,9.336 -0.778,18.789 -0.934,28.358 -0.155,9.569 -0.233,19.099 -0.233,28.591 0,6.38 -0.078,12.759 -0.233,19.139 -0.156,6.379 -0.234,12.759 -0.234,19.139 -0.311,25.518 -0.7,51.036 -1.167,76.554 -0.467,25.518 -0.7,51.114 -0.7,76.788 -0.156,12.293 -0.311,33.726 -0.467,64.302 -0.156,30.575 0.467,51.386 1.867,62.434 0.778,6.379 3.346,11.436 7.703,15.171 3.734,3.111 9.141,5.368 16.221,6.768 7.079,1.4 13.654,2.334 19.722,2.801 14.782,1.089 30.186,1.634 46.213,1.634 8.402,0 14.393,-0.389 17.971,-1.167 4.357,-0.934 8.014,-3.579 10.97,-7.936 1.09,-1.711 2.101,-3.812 3.034,-6.302 0.934,-2.489 1.868,-4.745 2.801,-6.768 2.178,-6.224 3.735,-10.97 4.668,-14.237 1.4,-4.979 2.84,-9.881 4.318,-14.705 1.478,-4.823 2.995,-9.569 4.551,-14.237 1.401,-4.979 2.879,-9.88 4.435,-14.704 1.556,-4.824 3.112,-9.569 4.668,-14.237 2.023,-7.002 4.318,-14.16 6.885,-21.473 2.567,-7.313 5.018,-14.393 7.352,-21.239 L -7.352,21.123 C -5.018,14.121 -2.567,7.08 0,0"
             style="fill:#7f47dd;fill-opacity:1;fill-rule:nonzero;stroke:none"
             id="path6844" />
        </g>
        <g
           id="g6846"
           transform="translate(2671.3203,2953.9214)">
          <path
             d="m 0,0 z m -200.164,-162.387 0.222,-0.012 c 16.957,-1.042 34.391,-0.665 51.817,1.12 11.745,1.323 21.493,2.938 28.979,4.8 4.234,1.16 7.785,2.391 10.563,3.661 0.206,0.256 0.759,1.062 1.366,2.912 0.956,3.697 1.538,8.173 1.731,13.309 0.227,6.04 0.341,11.615 0.341,16.57 0,16.498 -0.464,33.307 -1.381,49.961 -0.931,16.916 -1.796,34.052 -2.57,50.931 -0.466,8.381 -0.931,16.723 -1.397,25.027 -0.468,8.344 -0.863,16.835 -1.175,25.239 -0.312,6.107 -0.822,16.856 -1.516,31.953 -0.737,16.06 -0.677,27.55 0.184,35.127 l 0.061,0.461 c 1.644,10.852 7.463,14.087 12.055,14.89 2.962,0.518 10.398,0.704 15.496,-8.707 l 0.189,-0.363 c 1.875,-3.749 4.1,-9.632 7.003,-18.512 2.592,-7.928 4.593,-13.857 5.948,-17.622 l 0.159,-0.469 c 0.871,-2.758 1.827,-5.554 2.843,-8.312 1.064,-2.886 2.137,-5.721 3.189,-8.426 l 0.208,-0.579 c 0.89,-2.667 1.867,-5.448 2.905,-8.266 1.064,-2.886 2.136,-5.721 3.189,-8.427 l 0.208,-0.578 c 0.924,-2.771 1.886,-5.618 2.886,-8.543 0.951,-2.779 1.952,-5.521 2.974,-8.15 l 0.062,-0.161 c 3.937,-10.554 8.084,-22.595 12.325,-35.788 8.401,-26.135 15.895,-50.512 22.276,-72.455 1.83,-6.407 4.569,-15.162 8.157,-26.078 3.964,-12.059 7.352,-17.835 9.497,-20.558 l 0.111,-0.143 c 1.928,-2.521 3.525,-3.028 5.475,-3.028 3.022,0 5.171,0.829 7.155,2.765 0.742,0.817 2.927,3.92 4.288,13.065 1.39,9.347 2.572,16.801 3.514,22.162 0.746,5.384 1.427,10.88 2.025,16.339 0.633,5.772 1.355,11.585 2.145,17.278 l 4.622,33.274 c 0.487,5.749 1.178,11.57 2.055,17.309 0.843,5.519 1.66,11.117 2.426,16.636 0.783,5.485 1.561,10.962 2.337,16.478 0.781,5.547 1.653,11.217 2.592,16.855 1.249,8.736 2.985,19.743 5.16,32.716 2.235,13.33 4.691,24.418 7.299,32.961 0.354,1.332 1.056,3.53 3.061,8.702 3.743,9.654 10.352,11.039 14.034,10.993 2.891,-0.031 9.988,-1.13 13.452,-10.658 l 0.2,-0.594 C 81.497,101.7 82.089,98.06 82.39,93.547 l 0.594,-8.944 c 0.313,-6.105 0.591,-12.284 0.825,-18.364 0.23,-5.975 0.502,-12.046 0.809,-18.046 l 0.013,-0.319 c 0.152,-5.934 0.384,-11.952 0.687,-17.886 0.304,-5.921 0.689,-11.851 1.145,-17.628 l 0.023,-0.344 c 0.31,-6.065 0.622,-12.092 0.933,-18.08 0.298,-5.743 0.751,-11.528 1.348,-17.194 l 0.03,-0.325 c 0.468,-5.925 0.904,-11.948 1.296,-17.901 0.384,-5.833 0.811,-11.659 1.269,-17.316 0.47,-6.107 0.936,-12.046 1.402,-17.868 0.457,-5.711 0.997,-11.535 1.605,-17.31 l 0.039,-0.449 c 0.3,-4.35 0.799,-9.944 1.482,-16.626 0.721,-7.054 1.85,-10.243 2.459,-11.516 l 0.299,-0.678 c 0.21,-0.514 1.93,-0.982 2.126,-1.034 l 0.352,-0.099 c 2.113,-0.626 6.191,-1.389 13.623,-1.47 5.511,-0.055 8.987,0.44 11.131,0.997 0.118,0.474 0.245,1.128 0.349,1.999 0.462,4.529 0.587,13.668 -1.399,31.555 l -3.968,35.71 c -0.615,5.53 -1.276,11.127 -1.964,16.635 -0.698,5.585 -1.368,11.334 -1.991,17.09 -2.951,22.204 -5.9,44.445 -8.85,66.726 -2.945,22.235 -5.854,44.842 -8.648,67.193 -1.401,11.206 -2.802,22.452 -4.202,33.736 -1.404,11.309 -2.671,22.9 -3.765,34.454 -0.623,5.612 -1.215,11.378 -1.76,17.14 -0.536,5.675 -1.041,11.414 -1.501,17.065 -0.632,4.492 -1.267,10.271 -1.889,17.186 -0.552,6.145 -1.407,9.598 -2.021,11.405 -0.39,0.154 -1.077,0.371 -2.175,0.552 -3.476,0.401 -9.103,0.677 -16.733,0.821 -8.912,0.169 -13.469,-0.072 -15.77,-0.324 -0.314,-0.075 -0.483,-0.151 -0.528,-0.178 0.013,0 -0.124,-0.205 -0.283,-0.615 l -0.081,-0.204 c -1.31,-3.216 -2.334,-7.463 -3.044,-12.625 -0.83,-6.039 -1.479,-11.381 -1.929,-15.878 l -0.043,-0.378 c -2.179,-16.651 -4.546,-33.496 -7.036,-50.066 -2.47,-16.443 -4.899,-33.094 -7.22,-49.492 l -0.046,-0.303 C 28.468,108.865 27.62,103.386 26.86,98.067 L 24.481,81.441 C 22.638,70.38 20.923,59.431 19.385,48.898 17.824,38.2 16.083,27.083 14.212,15.856 L 14.154,15.537 C 13.199,10.604 12.071,5.283 10.8,-0.278 l -0.213,-0.806 c -0.5,-1.666 -1.33,-4.279 -2.539,-7.986 -1.967,-6.033 -5.36,-10.003 -10.086,-11.802 -4.068,-1.547 -8.63,-1.154 -12.535,1.08 -4.047,2.29 -7.071,6.191 -9.24,11.923 -1.05,2.776 -1.914,5.162 -2.572,7.104 -1.017,2.422 -1.96,5.014 -2.803,7.714 -0.745,2.385 -1.506,4.744 -2.262,7.01 -2.271,6.663 -4.718,13.614 -7.244,20.58 -2.577,7.107 -5.074,14.278 -7.421,21.315 l -19.85,55.818 c -2.315,6.79 -4.776,13.9 -7.315,21.132 -2.602,7.412 -4.967,14.779 -7.03,21.901 -1.527,4.585 -3.083,9.331 -4.626,14.112 -1.565,4.854 -3.076,9.855 -4.49,14.87 -1.55,4.656 -3.08,9.448 -4.551,14.247 -1.501,4.899 -2.981,9.94 -4.399,14.982 -0.822,2.876 -2.253,7.247 -4.244,12.951 -0.972,2.145 -1.944,4.514 -2.896,7.05 -0.724,1.933 -1.355,3.134 -1.782,3.83 -1.561,2.236 -2.701,2.481 -3.137,2.574 -1.55,0.337 -5.555,0.889 -15.352,0.889 -15.649,0 -30.888,-0.538 -45.295,-1.6 -5.509,-0.423 -11.651,-1.298 -18.214,-2.596 -6.406,-1.267 -9.364,-3.065 -10.582,-4.057 -1.312,-1.143 -2.855,-2.997 -3.359,-7.133 -1.333,-10.516 -1.928,-30.971 -1.776,-60.858 0.155,-30.444 0.312,-52.046 0.466,-64.207 l 0.001,-0.158 c 0,-25.478 0.235,-51.236 0.698,-76.559 0.466,-25.45 0.859,-51.233 1.168,-76.631 l 0.001,-0.153 c 0,-6.255 0.077,-12.591 0.23,-18.833 0.157,-6.445 0.237,-12.986 0.237,-19.444 0,-9.39 0.078,-18.941 0.232,-28.388 0.153,-9.39 0.462,-18.789 0.919,-27.937 l 0.007,-0.162 c 0.258,-6.963 0.59,-11.249 0.89,-13.881 m 19.094,-25.586 c -6.804,0 -13.566,0.204 -20.263,0.613 -5.35,0.211 -8.772,0.66 -11.425,1.499 -9.541,3.012 -11.193,13.332 -11.73,16.944 -0.709,4.165 -1.215,10.517 -1.546,19.409 -0.468,9.4 -0.786,19.054 -0.943,28.694 -0.156,9.583 -0.235,19.271 -0.235,28.795 0,6.255 -0.077,12.592 -0.229,18.833 -0.157,6.419 -0.237,12.934 -0.238,19.367 -0.308,25.323 -0.7,51.029 -1.165,76.403 -0.465,25.449 -0.701,51.333 -0.702,76.937 -0.155,12.238 -0.311,33.876 -0.467,64.318 -0.159,31.412 0.484,52.369 1.967,64.069 1.156,9.488 5.186,17.277 11.968,23.09 l 0.133,0.112 c 5.417,4.515 12.547,7.598 21.797,9.428 7.529,1.49 14.658,2.5 21.19,3.002 15.054,1.109 30.912,1.67 47.171,1.67 9.514,0 16.068,-0.461 20.626,-1.452 7.45,-1.596 13.914,-6.139 18.659,-13.131 l 0.201,-0.307 c 1.571,-2.468 2.943,-5.289 4.194,-8.625 0.821,-2.191 1.644,-4.182 2.446,-5.92 l 0.251,-0.543 0.198,-0.565 c 2.28,-6.518 3.879,-11.402 4.888,-14.933 1.38,-4.906 2.805,-9.76 4.251,-14.476 1.44,-4.702 2.94,-9.394 4.458,-13.946 l 0.175,-0.569 c 1.352,-4.808 2.798,-9.603 4.297,-14.25 1.545,-4.788 3.102,-9.54 4.63,-14.122 l 0.151,-0.484 c 1.949,-6.748 4.194,-13.747 6.671,-20.802 2.554,-7.277 5.032,-14.434 7.364,-21.273 l 19.89,-55.936 c 2.29,-6.868 4.728,-13.871 7.245,-20.813 2.004,-5.528 3.961,-11.047 5.836,-16.468 1.431,8.801 2.774,17.491 4.004,25.915 1.555,10.653 3.288,21.721 5.15,32.899 l 2.313,16.193 c 0.78,5.46 1.65,11.08 2.586,16.704 2.324,16.42 4.756,33.09 7.23,49.554 2.457,16.353 4.793,32.976 6.945,49.41 0.479,4.76 1.158,10.346 2.019,16.605 1.002,7.286 2.513,13.358 4.62,18.558 3.453,8.816 10.509,14.606 19.881,16.31 l 0.686,0.105 c 4.369,0.546 10.832,0.731 19.757,0.561 8.749,-0.165 15.114,-0.499 19.459,-1.02 l 0.412,-0.056 c 13.126,-2.02 18.779,-9.031 21.211,-14.557 l 0.096,-0.225 c 2.068,-4.963 3.435,-11.399 4.179,-19.676 0.6,-6.682 1.204,-12.157 1.792,-16.273 l 0.084,-0.758 c 0.459,-5.661 0.965,-11.416 1.503,-17.105 0.535,-5.662 1.117,-11.325 1.729,-16.834 l 0.021,-0.204 c 1.074,-11.347 2.317,-22.728 3.695,-33.83 1.4,-11.277 2.8,-22.516 4.2,-33.716 2.786,-22.29 5.688,-44.836 8.624,-67.011 2.956,-22.327 5.912,-44.615 8.868,-66.863 l 0.037,-0.303 c 0.613,-5.67 1.273,-11.333 1.96,-16.832 0.702,-5.619 1.377,-11.33 2.003,-16.974 l 3.969,-35.71 c 1.827,-16.448 2.288,-28.546 1.409,-36.985 l -0.016,-0.148 c -0.777,-6.682 -3.801,-18.404 -15.312,-22.268 -5.656,-2.051 -12.616,-3.014 -21.28,-2.909 -8.306,0.09 -14.942,0.891 -20.279,2.447 -11.169,3.015 -16.251,9.938 -18.556,15.368 -2.273,4.89 -3.787,11.253 -4.623,19.436 -0.7,6.842 -1.217,12.635 -1.537,17.223 -0.62,5.909 -1.172,11.867 -1.639,17.712 -0.468,5.848 -0.936,11.812 -1.404,17.893 -0.464,5.731 -0.901,11.685 -1.294,17.643 -0.38,5.792 -0.804,11.651 -1.259,17.417 -0.634,6.05 -1.116,12.223 -1.435,18.349 -0.308,5.938 -0.617,11.913 -0.925,17.926 -0.228,2.904 -0.44,5.844 -0.632,8.801 -0.478,-3.07 -0.931,-6.13 -1.356,-9.15 C 58.76,4.685 57.98,-0.808 57.202,-6.262 56.426,-11.845 55.594,-17.556 54.733,-23.187 53.924,-28.479 53.291,-33.848 52.85,-39.142 l -0.076,-0.682 -4.668,-33.609 c -0.758,-5.456 -1.45,-11.029 -2.056,-16.564 -0.633,-5.772 -1.355,-11.586 -2.145,-17.278 l -0.072,-0.454 c -0.91,-5.155 -2.069,-12.464 -3.447,-21.723 -1.808,-12.154 -5.422,-20.911 -11.048,-26.772 l -0.179,-0.183 c -6.67,-6.67 -15.296,-10.196 -24.943,-10.196 -10.12,0 -18.86,4.416 -25.279,12.77 -4.98,6.349 -9.415,15.559 -13.554,28.153 -3.689,11.225 -6.526,20.296 -8.429,26.959 -6.3,21.664 -13.725,45.816 -22.055,71.729 -4.112,12.797 -8.122,24.444 -11.918,34.62 -1.136,2.924 -2.244,5.964 -3.296,9.039 -0.987,2.887 -1.938,5.699 -2.852,8.438 -1.07,2.757 -2.158,5.634 -3.235,8.557 -0.141,0.382 -0.281,0.764 -0.42,1.146 0.045,-0.902 0.087,-1.73 0.126,-2.486 l 0.008,-0.177 c 0.306,-8.276 0.695,-16.638 1.156,-24.853 0.467,-8.327 0.933,-16.693 1.401,-25.097 l 0.006,-0.121 c 0.771,-16.824 1.633,-33.904 2.561,-50.766 0.942,-17.109 1.419,-34.381 1.419,-51.335 0,-5.266 -0.12,-11.156 -0.358,-17.506 -0.268,-7.123 -1.152,-13.546 -2.631,-19.09 l -0.153,-0.527 c -2.798,-8.906 -7.663,-15.029 -14.458,-18.2 -4.184,-1.953 -9.075,-3.681 -14.95,-5.283 l -0.258,-0.068 c -8.588,-2.147 -19.503,-3.973 -32.443,-5.429 l -0.122,-0.013 c -11.882,-1.219 -23.779,-1.83 -35.552,-1.83"
             style="fill:#7f47dd;fill-opacity:1;fill-rule:nonzero;stroke:none"
             id="path6848" />
        </g>
        <g
           id="g6850"
           transform="translate(3008.5688,2820.124)">
          <path
             d="m 0,0 c -0.078,-9.958 -0.583,-15.949 -1.517,-17.972 -0.156,-0.466 -0.7,-1.167 -1.634,-2.1 l -8.636,-8.869 -5.601,-4.202 c -4.512,-2.334 -10.581,-3.89 -18.205,-4.668 -8.092,-1.089 -17.661,-2.139 -28.708,-3.15 -11.048,-1.012 -20.539,-1.44 -28.475,-1.284 -5.757,0 -10.269,0.7 -13.537,2.1 -2.645,0.623 -4.201,1.634 -4.668,3.035 -0.623,1.711 -0.934,7.741 -0.934,18.088 V 0.467 l -0.233,92.192 c 0,10.27 -0.039,20.578 -0.117,30.925 -0.077,10.348 -0.116,20.656 -0.116,30.926 v 30.808 30.809 c 0,19.761 -0.039,39.561 -0.117,59.4 -0.078,19.839 -0.117,39.639 -0.117,59.4 v 10.153 10.386 c 0.467,5.601 0.778,8.713 0.934,9.336 1.089,3.423 2.567,6.302 4.434,8.635 2.49,2.801 4.746,4.824 6.769,6.069 4.824,3.112 11.125,5.368 18.905,6.768 10.737,1.868 23.613,2.996 38.628,3.385 15.015,0.389 28.28,0.583 39.794,0.583 2.645,0 4.046,-0.544 4.201,-1.634 0,-0.466 0.039,-0.933 0.117,-1.4 0.078,-0.467 0.194,-0.934 0.35,-1.4 0,-2.49 0.078,-4.435 0.233,-5.835 V 358.5 337.027 L 0.117,19.139 C 0.117,16.338 0.078,9.958 0,0"
             style="fill:#fb0294;fill-opacity:1;fill-rule:nonzero;stroke:none"
             id="path6852" />
        </g>
      </g>
    </g>
  </g>
</svg>
