<?xml version="1.0" encoding="UTF-8"?><svg id="a" xmlns="http://www.w3.org/2000/svg" viewBox="0 0 4000 4000"><defs><style>.b{fill:#fb0294;}.c{fill:#fff3f2;}.d{fill:#ff1400;}.e{fill:#ff147a;}.f{fill:#f60;}.g{fill:#ff75b1;}.h{fill:#ff857a;}.i{fill:#7f47dd;}.j{fill:#af65a8;}.k{fill:#c17feb;}.l{fill:#df535b;}.m{fill:#422d2d;}.n{fill:#85147a;}</style></defs><g><path class="e" d="M3496.42,1036.39c6.99,.58,13.05,5.68,17.2,17.88,8.94,26.39,2.9,49.41-5.84,73.99-7.21,20.27-20.27,49.76-6.04,69.86,21.27,30.05,189.25,20.56,149.27,80.65-27.76,41.77-83.8,16.9-113.79,48.22-33.86,35.41-8.55,77.57-13.86,118.1-2.09,15.99-.6,36.17-17.36,45.05-69.67,36.91-59.51-97.89-94.36-116.75-56.05-30.33-98.97,72.61-162.87,43.17-59.93-27.6,52.09-115.13,55.05-145.31,3.34-34.05-134.4-136.93-31.46-142.92,35.36-2.05,68.92,19.95,105.71,16.53,60.53-5.61,61.4-113.14,118.36-108.47Z"/><g><path class="c" d="M3455.82,1267.82c-10.7-.1-19.29-8.83-19.2-19.53,.1-10.68,8.83-19.26,19.53-19.18,10.69,.12,19.28,8.84,19.17,19.52-.09,10.7-8.83,19.28-19.5,19.18Z"/><path class="m" d="M3461.29,1265.45c-6.73-.06-12.14-5.57-12.08-12.31,.06-6.74,5.57-12.15,12.31-12.1,6.74,.08,12.14,5.57,12.09,12.33-.06,6.72-5.58,12.13-12.31,12.08Z"/><path class="c" d="M3453.86,1318.69c-10.67-.08-19.26-8.83-19.16-19.51,.11-10.69,8.84-19.29,19.53-19.18,10.69,.09,19.26,8.83,19.18,19.52-.1,10.7-8.85,19.27-19.55,19.17Z"/><path class="m" d="M3459.38,1316.33c-6.75-.05-12.16-5.55-12.1-12.32,.06-6.72,5.58-12.13,12.31-12.07,6.74,.06,12.15,5.57,12.1,12.3-.07,6.75-5.58,12.16-12.3,12.09Z"/></g><path class="g" d="M3540.17,1270.42c3.54-2.49,4.38-7.38,1.88-10.94s-7.38-4.38-10.92-1.89-4.41,7.4-1.92,10.94,7.39,4.4,10.96,1.89Z"/><path class="g" d="M3470.31,1192.71c3.54-2.5,4.39-7.39,1.89-10.94s-7.38-4.38-10.93-1.89-4.4,7.4-1.91,10.93,7.4,4.4,10.95,1.9Z"/><path class="g" d="M3466.55,1126.04c3.54-2.5,4.39-7.39,1.9-10.93-2.5-3.55-7.4-4.4-10.94-1.9s-4.4,7.4-1.9,10.95,7.39,4.38,10.94,1.88Z"/><path class="g" d="M3391,1188.24c3.54-2.49,4.37-7.4,1.87-10.95s-7.39-4.38-10.92-1.89-4.4,7.4-1.91,10.93,7.41,4.41,10.96,1.91Z"/><path class="g" d="M3434.76,1214.34c6.84-4.82,8.47-14.27,3.66-21.1-4.81-6.83-14.28-8.48-21.11-3.67s-8.46,14.29-3.65,21.12,14.27,8.47,21.1,3.65Z"/><path class="g" d="M3343.78,1234.2c6.84-4.82,8.47-14.27,3.65-21.12-4.81-6.83-14.26-8.47-21.1-3.65-6.83,4.81-8.47,14.27-3.65,21.09,4.82,6.84,14.28,8.48,21.1,3.67Z"/><path class="g" d="M3358.85,1356.34c6.83-4.81,8.47-14.27,3.66-21.09s-14.28-8.48-21.11-3.67c-6.86,4.83-8.48,14.28-3.66,21.12,4.81,6.83,14.25,8.48,21.11,3.64Z"/><path class="g" d="M3494.72,1474.69c6.83-4.81,8.47-14.27,3.64-21.11-4.81-6.83-14.27-8.47-21.09-3.66-6.84,4.82-8.48,14.28-3.67,21.11s14.28,8.48,21.12,3.66Z"/><path class="g" d="M3615.55,1282.49c6.84-4.82,8.49-14.26,3.66-21.1s-14.27-8.49-21.11-3.67c-6.84,4.82-8.47,14.27-3.65,21.12s14.26,8.47,21.1,3.65Z"/><path class="g" d="M3518.15,1315.13c6.83-4.81,8.47-14.27,3.65-21.12-4.82-6.84-14.29-8.48-21.11-3.67s-8.48,14.28-3.66,21.12,14.28,8.48,21.12,3.66Z"/><path class="g" d="M3444.4,1162.28c6.84-4.82,8.47-14.27,3.64-21.11-4.82-6.84-14.26-8.47-21.09-3.65-6.84,4.82-8.49,14.26-3.67,21.1s14.28,8.48,21.12,3.66Z"/><path class="g" d="M3506.39,1104.18c6.83-4.81,8.46-14.26,3.63-21.1s-14.26-8.47-21.08-3.66c-6.84,4.82-8.48,14.28-3.67,21.1,4.82,6.84,14.28,8.48,21.12,3.66Z"/><path class="g" d="M3379.79,1255.12c3.55-2.5,4.4-7.4,1.91-10.93s-7.4-4.4-10.95-1.9-4.39,7.39-1.89,10.94,7.39,4.38,10.93,1.89Z"/><path class="g" d="M3306.34,1182c3.54-2.49,4.38-7.39,1.88-10.94s-7.39-4.38-10.92-1.89-4.4,7.4-1.91,10.93,7.4,4.4,10.95,1.9Z"/><path class="g" d="M3333.38,1307.04c3.54-2.49,4.38-7.38,1.88-10.94-2.5-3.55-7.38-4.38-10.92-1.89-3.55,2.5-4.41,7.38-1.91,10.93,2.5,3.55,7.39,4.4,10.95,1.9Z"/><path class="g" d="M3395.32,1325.81c3.53-2.49,4.39-7.37,1.89-10.92s-7.4-4.4-10.93-1.91-4.4,7.42-1.91,10.96,7.4,4.37,10.95,1.87Z"/><path class="g" d="M3311.54,1377.33c3.54-2.49,4.4-7.39,1.9-10.95s-7.41-4.39-10.95-1.9-4.37,7.4-1.88,10.94,7.4,4.4,10.93,1.91Z"/><path class="g" d="M3490.7,1397.89c3.54-2.5,4.4-7.39,1.91-10.93s-7.4-4.39-10.95-1.9-4.39,7.39-1.89,10.94,7.39,4.38,10.93,1.89Z"/><path class="g" d="M3444.06,1362.85c3.54-2.49,4.38-7.38,1.88-10.94s-7.39-4.4-10.93-1.91-4.42,7.41-1.91,10.96,7.41,4.39,10.96,1.88Z"/></g><g><path class="d" d="M3649.48,559.57c4.08,3.86,5.33,10.09,1.81,19.79-8.76,24.2-33.49,39.47-46.86,61.33-20.26,33.12,3.08,56.38,18.62,86.98,10.71,21.12,34.38,50.5,1.87,60.88-17.44,5.56-41.29-5.27-57.82-8.35-55.03-10.27-68.49,13.16-105.25,48.53-9.3,8.95-18.47,22.31-33.39,19.48-36.23-6.87-20.8-71.98-24.27-96.65-7.86-55.73-78.15-34.87-99.82-78.05-14.54-29.01,42.42-44.94,59.7-52.93,46.91-21.74,44.49-43.85,51.6-94.05,4.78-33.82,22.5-39.96,48.53-20.59,19.75,14.68,34.91,35.14,55.64,48.49,26.05,16.79,50.25,7.34,79.53,2.55,16.15-2.65,40.69-6.32,50.12,2.58Z"/><g><path class="c" d="M3511.2,654.83c-8.73,6.15-20.8,4.06-26.96-4.68s-4.06-20.8,4.67-26.95,20.8-4.08,26.96,4.66c6.16,8.74,4.06,20.82-4.67,26.97Z"/><path class="m" d="M3514.28,649.7c-5.51,3.89-13.11,2.56-16.99-2.95-3.88-5.51-2.57-13.1,2.94-16.99s13.11-2.56,16.99,2.94,2.57,13.12-2.94,17Z"/><ellipse class="c" cx="3528.16" cy="681.46" rx="19.35" ry="19.34" transform="translate(251.58 2156.7) rotate(-35.17)"/><path class="m" d="M3542.39,692.16c-5.51,3.88-13.12,2.56-17-2.95s-2.56-13.12,2.94-17,13.12-2.57,17,2.95,2.56,13.12-2.95,17Z"/></g><path class="h" d="M3457.5,754.39c6.84-4.82,8.48-14.26,3.66-21.11-4.82-6.84-14.27-8.47-21.11-3.66-6.84,4.82-8.47,14.27-3.66,21.11,4.82,6.84,14.27,8.47,21.11,3.66Z"/><path class="h" d="M3462.63,687.64c6.83-4.81,8.47-14.26,3.65-21.1s-14.27-8.47-21.09-3.65-8.49,14.27-3.67,21.1,14.26,8.48,21.12,3.65Z"/><path class="h" d="M3387.13,674.99c6.84-4.82,8.47-14.27,3.65-21.12s-14.27-8.47-21.1-3.65-8.47,14.27-3.66,21.1,14.29,8.48,21.11,3.67Z"/><path class="h" d="M3472.46,598.39c6.83-4.81,8.47-14.27,3.65-21.12-4.81-6.83-14.27-8.46-21.1-3.65s-8.47,14.27-3.66,21.1c4.82,6.84,14.28,8.48,21.11,3.67Z"/><path class="h" d="M3574.67,633.4c6.83-4.81,8.47-14.27,3.65-21.1-4.82-6.84-14.27-8.47-21.1-3.66-6.84,4.82-8.47,14.27-3.66,21.11,4.82,6.84,14.26,8.48,21.11,3.66Z"/><ellipse class="h" cx="3569.7" cy="736.39" rx="15.15" ry="15.16" transform="translate(227.52 2190.65) rotate(-35.17)"/><path class="h" d="M3482.28,789.06c3.54-2.49,4.39-7.39,1.89-10.94-2.49-3.54-7.41-4.39-10.94-1.9s-4.39,7.41-1.9,10.95c2.5,3.55,7.4,4.39,10.95,1.9Z"/><path class="h" d="M3441.7,802.56c3.54-2.49,4.4-7.4,1.9-10.95s-7.4-4.37-10.94-1.88c-3.55,2.5-4.4,7.4-1.91,10.93s7.39,4.4,10.95,1.9Z"/><path class="h" d="M3520.99,751.49c3.54-2.49,4.38-7.38,1.88-10.94s-7.4-4.4-10.93-1.91-4.41,7.4-1.9,10.95,7.41,4.39,10.96,1.89Z"/><path class="h" d="M3429.02,703.77c3.55-2.5,4.4-7.39,1.9-10.94s-7.39-4.4-10.95-1.9c-3.54,2.49-4.38,7.38-1.88,10.94s7.39,4.39,10.92,1.9Z"/><path class="h" d="M3410.3,623.64c3.54-2.5,4.4-7.38,1.89-10.93s-7.39-4.4-10.94-1.9-4.39,7.4-1.89,10.94c2.5,3.55,7.4,4.38,10.93,1.89Z"/><path class="h" d="M3459.92,634.65c3.54-2.5,4.39-7.4,1.9-10.95s-7.4-4.38-10.94-1.89-4.38,7.38-1.89,10.93,7.4,4.4,10.93,1.91Z"/><path class="h" d="M3443.49,552.91c3.54-2.49,4.4-7.4,1.9-10.94s-7.41-4.38-10.94-1.89-4.39,7.39-1.89,10.93,7.39,4.39,10.93,1.9Z"/><path class="h" d="M3475.74,548.03c3.54-2.49,4.38-7.38,1.88-10.94s-7.39-4.39-10.93-1.9-4.41,7.4-1.91,10.94c2.5,3.55,7.4,4.39,10.96,1.89Z"/><path class="h" d="M3524.89,601.21c3.53-2.49,4.38-7.38,1.89-10.93s-7.39-4.39-10.92-1.9-4.41,7.4-1.91,10.95,7.4,4.38,10.95,1.88Z"/><path class="h" d="M3601.72,587.56c3.54-2.49,4.38-7.38,1.89-10.93s-7.39-4.39-10.92-1.9c-3.54,2.5-4.4,7.39-1.9,10.94,2.5,3.54,7.4,4.39,10.94,1.89Z"/><path class="h" d="M3579.04,679.03c3.54-2.5,4.38-7.41,1.89-10.94s-7.39-4.39-10.93-1.89-4.4,7.38-1.89,10.93,7.4,4.4,10.94,1.9Z"/><path class="h" d="M3620.37,761.06c3.54-2.5,4.37-7.42,1.88-10.96s-7.39-4.38-10.93-1.89-4.41,7.4-1.92,10.94,7.42,4.41,10.97,1.91Z"/><path class="h" d="M3491.37,725.03c3.54-2.5,4.38-7.41,1.88-10.95s-7.39-4.39-10.93-1.9-4.41,7.4-1.91,10.95,7.42,4.4,10.96,1.9Z"/></g><g><path class="n" d="M2834.78,223.76c5.11-2.6,11.21-3.49,18.45-2.08,29.38,5.64,32.5,29.04,42.75,52.1,21.01,47.33,42.08,44.01,82,24.74,19.44-9.4,93.02-46.82,96.5-2.74,3.38,42.91-44.93,65.23-50.03,104.52-5.87,45.31,42.97,75.3,56.82,114.13,22.17,62.06-44.06,41.29-75.82,24.71-16.46-8.61-34.2-29.87-54.58-27.04-57.14,7.96-52.84,112.79-107.37,117.8-55.36,5.02-25.47-111.61-40.02-136.11-11.98-20.14-165.87-46.48-115.75-87.28,37.57-30.58,92.84-15.49,112.47-68.1,7.84-21.02,3.87-98.96,34.58-114.65Z"/><g><path class="c" d="M2918.3,401.57c-8.73,6.15-20.8,4.06-26.96-4.67-6.16-8.74-4.07-20.81,4.67-26.96,8.73-6.15,20.8-4.06,26.96,4.68,6.15,8.73,4.07,20.8-4.67,26.95Z"/><path class="m" d="M2921.39,396.44c-5.51,3.89-13.12,2.56-17.01-2.95-3.88-5.51-2.56-13.11,2.95-16.99s13.11-2.56,16.99,2.94c3.89,5.51,2.58,13.12-2.93,17Z"/><path class="c" d="M2946.43,444.03c-8.73,6.15-20.8,4.06-26.96-4.68s-4.07-20.81,4.66-26.96,20.81-4.07,26.97,4.67c6.15,8.73,4.07,20.81-4.67,26.97Z"/><path class="m" d="M2949.49,438.89c-5.51,3.88-13.11,2.57-16.99-2.94s-2.56-13.12,2.94-17,13.12-2.56,17,2.95c3.88,5.51,2.56,13.11-2.95,16.99Z"/></g><path class="j" d="M3001.15,434.41c6.83-4.81,8.47-14.26,3.65-21.1s-14.27-8.47-21.1-3.66-8.47,14.27-3.66,21.11c4.82,6.84,14.27,8.47,21.11,3.66Z"/><circle class="j" cx="3001.08" cy="353.49" r="15.15" transform="translate(344.27 1793.21) rotate(-35.17)"/><circle class="j" cx="2842.47" cy="339.7" r="15.15"/><path class="j" d="M2875.34,491.5c6.83-4.81,8.47-14.27,3.65-21.1-4.82-6.84-14.27-8.47-21.1-3.66s-8.48,14.28-3.67,21.11,14.27,8.47,21.12,3.65Z"/><path class="j" d="M2800.54,451.58c6.84-4.82,8.47-14.27,3.66-21.11s-14.27-8.47-21.11-3.66c-6.83,4.81-8.47,14.27-3.65,21.1,4.82,6.84,14.27,8.47,21.1,3.66Z"/><path class="j" d="M3012.69,495.57c3.54-2.49,4.39-7.39,1.89-10.93s-7.4-4.39-10.93-1.9-4.4,7.4-1.9,10.94,7.39,4.39,10.94,1.89Z"/><path class="j" d="M2971.51,491.66c3.54-2.5,4.38-7.41,1.88-10.95s-7.38-4.38-10.93-1.89-4.4,7.4-1.91,10.93,7.4,4.41,10.95,1.9Z"/><path class="j" d="M3050.1,528.22c3.54-2.49,4.39-7.39,1.89-10.93-2.5-3.54-7.4-4.4-10.94-1.9-3.54,2.5-4.38,7.4-1.89,10.94,2.5,3.54,7.39,4.39,10.93,1.89Z"/><path class="j" d="M2959.73,373.71c3.54-2.5,4.4-7.4,1.9-10.95s-7.4-4.39-10.94-1.89-4.38,7.39-1.89,10.93,7.39,4.4,10.93,1.91Z"/><path class="j" d="M2897.66,344.03c3.53-2.49,4.4-7.4,1.9-10.95s-7.41-4.38-10.94-1.89-4.39,7.4-1.89,10.94c2.5,3.55,7.4,4.4,10.94,1.9Z"/><path class="j" d="M2858.27,264.76c3.54-2.5,4.38-7.4,1.88-10.95s-7.39-4.39-10.93-1.9-4.39,7.4-1.89,10.94,7.41,4.4,10.95,1.91Z"/><path class="j" d="M2875.81,305.22c3.54-2.49,4.39-7.39,1.9-10.93s-7.4-4.39-10.94-1.9-4.39,7.4-1.9,10.95,7.39,4.39,10.94,1.89Z"/><path class="j" d="M2803.72,382.09c3.54-2.5,4.4-7.4,1.9-10.94s-7.4-4.39-10.95-1.9-4.38,7.41-1.89,10.94,7.39,4.39,10.94,1.89Z"/><path class="j" d="M2859.59,424.37c3.54-2.5,4.39-7.4,1.89-10.94s-7.39-4.39-10.93-1.89-4.39,7.4-1.9,10.94,7.39,4.4,10.95,1.9Z"/><path class="j" d="M2866.73,562.07c3.54-2.49,4.38-7.38,1.88-10.94s-7.39-4.39-10.93-1.9c-3.54,2.49-4.4,7.4-1.9,10.94s7.41,4.39,10.95,1.9Z"/><path class="j" d="M2835.16,532.84c3.55-2.5,4.39-7.4,1.9-10.94s-7.4-4.4-10.95-1.9c-3.55,2.5-4.39,7.4-1.9,10.95s7.39,4.39,10.94,1.89Z"/><path class="j" d="M2924.73,506.1c3.54-2.49,4.38-7.39,1.88-10.94s-7.39-4.39-10.93-1.9-4.4,7.4-1.9,10.94,7.4,4.39,10.95,1.9Z"/><path class="j" d="M2731.96,429.23c3.55-2.5,4.39-7.41,1.9-10.95s-7.39-4.39-10.94-1.89-4.38,7.39-1.88,10.93c2.5,3.54,7.38,4.41,10.93,1.91Z"/><path class="j" d="M2950.25,349.51c3.54-2.49,4.38-7.38,1.89-10.93s-7.39-4.4-10.93-1.91-4.4,7.41-1.9,10.95,7.39,4.39,10.95,1.88Z"/><path class="j" d="M3041.07,317.75c3.54-2.5,4.39-7.39,1.89-10.93s-7.39-4.39-10.93-1.9-4.4,7.4-1.9,10.94,7.41,4.38,10.94,1.89Z"/><path class="j" d="M3003.59,318.1c3.54-2.5,4.4-7.4,1.9-10.94s-7.4-4.39-10.95-1.9-4.39,7.4-1.9,10.95,7.39,4.39,10.94,1.89Z"/></g><path class="f" d="M557.35,374.5c1.03,30.12,24.89,59.44,58.52,48.49,16.29-5.27,32.35-20.82,51.54-12.3,12.89,5.72,17.51,22.75,10.41,35.67-8.03,14.61-29.07,18.3-40.02,29.38-33.72,34.21-17.39,97.04,31.14,106.71,49.61,9.86,66.33-53.58,71.64-89.53,7.5-50.75,48.77-32.81,64.37,2.98,18.18,41.72,21.59,92.51,83.25,85.04,45.89-5.55,76.07-48.61,71.76-93.88-4.79-50.6-66.67-47.1-84.99-86.47-16.63-35.84,30.21-45.87,55.49-50.06,123.16-20.46,89.9-158.8-20.44-118.55-45.68,16.68-36.64,75.46-76.03,97.97-18.37,10.49-43.75,6.2-54.77-12.46-24.9-42.13,31.78-125.73-34.52-148.7-37.88-13.13-78.98,9.68-87.25,48.91-8.62,40.89,26.68,58.68,44.53,89.8,21.33,37.21-17.8,51.08-46.43,36.17-31.33-16.3-63.74-39.31-89.83-.29-6.17,9.24-8.75,20.23-8.38,31.12Z"/><path class="k" d="M278.4,681.52c-18.65-2.57-45.05-.31-53.92,16.08-24.39,45.1,42.16,49.23,54.2,71.08,10.36,18.82-12.98,29.77-25.02,38.51-17.03,12.35-29.61,19.6-31.67,43.47-3.68,42.49,40.23,68.59,78.23,58.84,28.37-7.27,40.96-33.35,72.76-32.14,38.75,1.48,43.46,27.59,61.68,51.68,17.17,22.71,59.92,49.01,89.16,33.29,45.25-24.35-4.27-74.06-9.77-103.93-7.57-41.14,32.49-40.04,61.58-49.78,32.17-10.75,39.52-41.13,10.14-63.46-25.05-19.05-75.87-7.83-95.93-29.05-24.93-26.36,26.44-155.95-59.9-130.35-50.08,14.85-27.01,75.69-63.79,103.8-28.38,21.68-50.57,.7-79.63-6.53-2.46-.6-5.2-1.13-8.12-1.54Z"/><path class="l" d="M524.87,1432c-18.67,7.78-34.92,11-34.92-5.56,0-17.03,33.91-41.88,43.04-56.69,13.09-21.21,51.48-133.92-2.75-128.95-39.11,3.57-46.65,106.46-56.6,133.73-10.61,29.06-24.94,36.07-26.71-1.24-1.43-30,17.34-56.56,11-87.87-5.23-25.84-25.91-68.59-58.86-61.31-35.8,7.91-24.56,59.99-13.46,85.74,10.43,24.2,28.41,47.98,33.85,73.55,3.61,16.96-3.71,41.68-25.18,22.73-14.48-12.79-12.47-55.49-25.64-72.96-16.49-21.85-42.11-20.48-49.7,7.13-7.04,25.61,5.2,51.21,17.8,72.75,8.17,13.94,23.79,23.21,38.79,28.25,10.39,3.49,32.9,7.37,32.32,23.28-.68,18.52-37.69,7.5-48.48,4.38-18.59-5.38-56.13-7.61-48.44,23.81,12,49.11,108.74-35.14,112.88,2.35,2.42,21.89-38.63,24.31-46.49,44.89-6.5,17.02,4.36,46.68,26.15,39.79,18.6-5.87,27.51-32.18,36.59-47.12,9.93-16.34,26.58-39.44,36.11-9.22,6.15,19.52-4.63,43.09,4.4,62.07,10.23,21.53,29.45,26.18,38.85,4.29,11.51-26.8-31.85-103.16-11.37-112.17,11.57-5.09,27.48,10.7,37.47,15.24,18.63,8.47,43.17,16.25,61.24,4.18,16.22-10.82,26.59-28.84,26.13-48.63-.5-21.91-20.3-36.91-40.68-39.61-23.99-3.17-46.16,14.34-67.38,23.18Z"/><g><g><path class="i" d="M1138.13,940.88c.23,4.05,.58,8.01,1.05,11.9,.31,4.05,.58,8.13,.82,12.25s.58,8.13,1.05,12.02,2.72,5.21,6.77,3.97c3.42-1.09,6.38-2.49,8.87-4.2,1.87-1.24,3.15-2.14,3.85-2.68s1.91-1.52,3.62-2.92l3.5-3.03c.93-.93,1.91-1.98,2.92-3.15s2.06-2.29,3.15-3.38l.35-.35,.58-.58c.31-.31,.54-.62,.7-.93l3.27-3.97c.93-1.24,1.91-2.49,2.92-3.73s2.06-2.57,3.15-3.97l3.73-4.67c9.8-12.76,17.82-26.45,24.04-41.08,3.89-9.8,7.16-19.8,9.8-29.99s5.13-20.5,7.47-30.93l.7-4.2c.31-1.87,.7-3.89,1.17-6.07,0-.78,.08-1.52,.23-2.22s.31-1.52,.47-2.45c.93-5.91,1.87-9.88,2.8-11.9,.62-1.24,1.63-2.41,3.03-3.5,3.27-2.02,8.99-3.03,17.15-3.03s14.04,.31,17.62,.93c4.2,.93,7.39,2.02,9.57,3.27,2.96,2.33,4.32,5.52,4.08,9.57s-.58,7.94-1.05,11.67c-1.24,11.51-2.33,20.77-3.27,27.77s-3.11,16.18-6.54,27.54c-1.87,6.22-4.2,12.53-7,18.91-3.89,8.87-9.45,20.03-16.69,33.49s-13.89,23.69-19.96,30.69c-.31,.31-.78,.93-1.4,1.87-.62,.62-1.71,1.75-3.27,3.38s-2.65,2.68-3.27,3.15l-3.5,3.27-3.5,2.8c-3.73,2.96-7.59,5.68-11.55,8.17s-7.97,4.9-12.02,7.24c-1.09,.62-2.68,1.52-4.78,2.68s-3.07,2.14-2.92,2.92c.16,.62,1.91,1.94,5.25,3.97s5.48,3.27,6.42,3.73c6.69,4.67,12.14,8.79,16.34,12.37,.78,.93,1.56,1.71,2.33,2.33s1.63,1.4,2.57,2.33c1.24,1.56,2.72,3.35,4.43,5.37s3.11,3.73,4.2,5.13c1.56,2.33,2.84,4.2,3.85,5.6s2.37,3.35,4.08,5.83c9.34,15.4,16.49,31.82,21.47,49.25s8.56,35.01,10.74,52.75c.47,4.51,.93,10.54,1.4,18.09s-.16,13.11-1.87,16.69c-2.02,4.2-5.68,6.92-10.97,8.17-4.98,1.24-12.99,1.91-24.04,1.98s-17.82-1.98-20.31-6.19c-1.24-1.71-2.18-5.83-2.8-12.37-2.02-11.98-4.51-24.9-7.47-38.74-.93-4.2-1.83-8.44-2.68-12.72s-1.75-8.52-2.68-12.72c-3.27-12.29-6.69-22.72-10.27-31.28s-9.02-17.35-16.34-26.37c-3.42-4.05-6.22-7-8.4-8.87-2.65-2.18-5.37-3.97-8.17-5.37-4.36-2.02-6.54-1.17-6.54,2.57,0,3.27,.12,6.54,.35,9.8s.51,6.54,.82,9.8c.16,4.2,.54,10.66,1.17,19.37,.47,6.54,.86,12.99,1.17,19.37s.7,12.84,1.17,19.37c.62,9.65,1.21,19.33,1.75,29.06s1.21,19.41,1.98,29.06c.62,8.71,.93,15.4,.93,20.07s-.7,7.55-2.1,8.17-4.59,1.17-9.57,1.63c-17.27,1.87-34.12,3.27-50.53,4.2s-33.18,1.71-50.3,2.33c-7.31,.47-11.51-2.57-12.6-9.1-.47-3.11-.82-6.38-1.05-9.8s-.43-6.77-.58-10.04c-.93-13.54-1.75-27.15-2.45-40.84s-1.36-27.31-1.98-40.84-1.32-27.19-2.1-40.96-1.4-27.5-1.87-41.19l-3.73-82.62c-1.24-27.54-2.33-55.08-3.27-82.62l-.93-20.54c-.31-6.85-.54-13.69-.7-20.54-.16-2.8-.35-6.26-.58-10.39s-.04-7.59,.58-10.39c.47-2.8,2.26-4.51,5.37-5.13,1.4-.31,4.67-.7,9.8-1.17,28.79-2.33,56.25-3.66,82.39-3.97h9.34c4.2,0,6.85,1.63,7.94,4.9,.47,1.87,.78,3.81,.93,5.83s.39,3.89,.7,5.6c.93,12.14,1.83,24.27,2.68,36.41s1.75,24.2,2.68,36.18c.47,8.25,.97,16.42,1.52,24.51s1.21,16.1,1.98,24.04c.31,4.2,.58,8.32,.82,12.37Z"/><path class="i" d="M1041.91,1233.73c-12.6,0-21.55-7.36-23.59-19.59l-.03-.2c-.51-3.43-.9-7.06-1.16-10.81-.23-3.44-.43-6.85-.59-10.16-.93-13.51-1.76-27.28-2.46-40.94-.7-13.62-1.36-27.38-1.99-40.91-.62-13.43-1.32-27.17-2.09-40.83-.78-13.78-1.41-27.71-1.88-41.4l-3.73-82.55c-1.24-27.45-2.34-55.27-3.27-82.69l-.93-20.46c-.31-6.84-.55-13.77-.71-20.62-.15-2.76-.34-6.15-.57-10.17-.29-5.2-.03-9.62,.8-13.52,1.43-7.73,7.03-13.29,15.05-14.94,1.45-.31,3.99-.72,11.25-1.38h.12c28.94-2.36,56.95-3.71,83.25-4.02h9.48c9.59,0,16.99,5.03,19.79,13.45l.27,.92c.63,2.54,1.06,5.2,1.27,7.91,.12,1.59,.3,3.04,.54,4.33l.12,.63,.05,.64c.93,12.08,1.83,24.36,2.69,36.49,.85,12.07,1.75,24.21,2.68,36.08l.02,.26c.46,8.15,.97,16.35,1.51,24.37,.53,7.92,1.19,15.88,1.95,23.66l.03,.3c.32,4.26,.59,8.49,.83,12.57,.22,3.77,.55,7.52,.98,11.13l.05,.53c.32,4.12,.6,8.33,.83,12.5,0,.07,0,.15,.01,.22,.22-.16,.33-.25,.37-.28,.63-.49,1.71-1.36,3.24-2.61l3-2.6c.64-.65,1.32-1.39,2.02-2.21,1.2-1.38,2.46-2.74,3.76-4.04l.12-.12,3.8-4.61c.97-1.29,2-2.6,3.04-3.88,.96-1.18,1.95-2.43,2.99-3.76l.11-.13,3.66-4.57c9.05-11.8,16.56-24.62,22.32-38.12,3.66-9.23,6.77-18.78,9.27-28.38,2.57-9.91,5.02-20.06,7.29-30.18l.64-3.86c.29-1.73,.64-3.59,1.05-5.56,.08-1.15,.24-2.29,.48-3.39,.1-.46,.21-1.05,.33-1.75,1.15-7.28,2.32-11.95,3.79-15.13l.17-.35c1.46-2.92,3.66-5.54,6.54-7.78l.53-.41,.57-.35c5.41-3.35,12.95-4.91,23.73-4.91,9.1,0,15.38,.36,19.76,1.12l.57,.11c5.48,1.22,9.75,2.73,13.06,4.62l.81,.46,.73,.58c6.15,4.86,9.29,12,8.82,20.1-.25,4.27-.62,8.44-1.11,12.4-1.25,11.51-2.35,20.92-3.29,27.98-1.03,7.74-3.31,17.39-6.96,29.5-2,6.67-4.53,13.51-7.52,20.32-4,9.13-9.77,20.7-17.12,34.39-7.74,14.41-14.78,25.19-21.52,32.96l-.13,.15c-.09,.13-.2,.29-.32,.47l-.69,1.03-.87,.87c-.58,.58-1.6,1.64-3.06,3.17-1.79,1.88-3.05,3.1-4.15,4l-3.87,3.56-3.5,2.8c-4.12,3.26-8.38,6.28-12.72,9-1.26,.79-2.52,1.57-3.79,2.35,5.34,3.83,9.88,7.34,13.54,10.45l.81,.69,.68,.82c.35,.42,.54,.58,.54,.58,1.15,.92,2.33,1.98,3.59,3.25l.49,.49,.43,.54c1.16,1.45,2.58,3.16,4.22,5.1,1.84,2.18,3.32,3.99,4.52,5.53l.53,.74c1.46,2.19,2.67,3.95,3.58,5.22,1.07,1.48,2.5,3.53,4.25,6.07l.39,.6c9.87,16.28,17.54,33.88,22.8,52.29,5.13,17.97,8.88,36.36,11.12,54.66l.03,.24c.48,4.66,.97,10.92,1.44,18.6,.61,9.93-.36,17.19-3.07,22.85-2.57,5.35-8,12.24-19.3,14.92-6,1.49-14.8,2.25-26.9,2.34-5.8,.05-23.31,.16-30.87-11.86-2.48-3.69-3.87-8.87-4.72-17.55-1.97-11.63-4.42-24.32-7.28-37.73-.94-4.24-1.86-8.59-2.73-12.93-.82-4.1-1.68-8.2-2.57-12.21-3.09-11.58-6.33-21.48-9.66-29.42-3.06-7.31-7.84-15.03-14.22-22.96,.17,4.07,.54,10.18,1.11,18.18,.47,6.6,.87,13.22,1.18,19.65,.3,6.25,.69,12.67,1.15,19.09,.63,9.72,1.22,19.54,1.76,29.25,.54,9.56,1.2,19.24,1.96,28.75v.11c.66,9.09,.97,15.95,.97,20.96,0,3.8,0,15.36-9.52,19.59-2.81,1.25-6.69,2.02-13.39,2.65-17.37,1.88-34.56,3.3-51.08,4.24-16.37,.93-33.32,1.72-50.4,2.34-.66,.04-1.31,.06-1.95,.06Zm-18.1-425.84c-.01,.88,0,1.91,.07,3.09,.23,4.13,.43,7.59,.58,10.4l.02,.41c.15,6.72,.39,13.54,.69,20.26l.94,20.68c.93,27.35,2.02,55.1,3.26,82.48l3.74,82.76c.46,13.53,1.09,27.29,1.85,40.92,.78,13.75,1.49,27.58,2.11,41.09,.62,13.48,1.29,27.2,1.98,40.78,.69,13.55,1.51,27.22,2.44,40.62l.02,.26c.15,3.17,.34,6.47,.57,9.78,.17,2.51,.41,4.95,.72,7.26h0c16.96-.62,33.8-1.4,50.04-2.32,16.13-.92,32.92-2.31,49.9-4.15l.18-.02c.1,0,.21-.02,.31-.03-.09-4.16-.38-9.68-.87-16.46-.78-9.7-1.45-19.56-2-29.31-.54-9.64-1.13-19.39-1.74-28.95-.47-6.52-.86-13.13-1.18-19.57-.3-6.25-.69-12.67-1.15-19.09-.61-8.56-1.01-15.1-1.18-19.44-.31-3.24-.58-6.52-.81-9.74-.25-3.55-.38-7.15-.38-10.69,0-8.4,4.91-12.44,7.03-13.79,3.37-2.15,9.1-3.92,17.27-.12l.33,.16c3.63,1.81,7.17,4.13,10.52,6.9l.19,.16c2.71,2.32,5.92,5.69,9.81,10.28l.17,.21c8.03,9.91,14.14,19.81,18.16,29.42,3.78,9.04,7.42,20.11,10.82,32.89l.12,.5c.95,4.26,1.87,8.63,2.74,12.98,.84,4.18,1.72,8.37,2.63,12.46l.02,.1c2.98,13.95,5.52,27.16,7.57,39.27l.12,.9c.31,3.24,.65,5.19,.88,6.27,1.29,.4,4.18,1,9.69,.97,12.46-.09,18.35-.92,21.1-1.61l.17-.04c2.12-.5,2.41-1.1,2.57-1.42,.03-.07,1.15-2.5,.65-10.49-.45-7.27-.9-13.15-1.35-17.46-2.09-16.97-5.57-34.03-10.33-50.72-4.62-16.16-11.33-31.6-19.96-45.9-1.55-2.25-2.79-4.03-3.71-5.3-1.05-1.46-2.32-3.29-3.85-5.59-.94-1.2-2.16-2.68-3.61-4.39-1.57-1.86-2.98-3.55-4.18-5.04-.51-.49-.87-.8-1.09-.98-1.14-.91-2.26-1.98-3.33-3.17-3.66-3.06-8.38-6.62-14.05-10.6-1.07-.58-2.86-1.61-6.37-3.73-5.34-3.23-9.54-6.14-10.91-11.63l-.13-.58c-.76-3.78-.58-10.92,9.1-16.3,2.04-1.14,3.59-2,4.65-2.61,3.85-2.22,7.76-4.58,11.58-6.97,3.57-2.24,7.08-4.72,10.44-7.38l3.08-2.46,4-3.67c.18-.17,.74-.69,1.9-1.91,1.1-1.15,1.98-2.07,2.64-2.75,.65-.91,1.23-1.64,1.8-2.27,5.4-6.28,11.53-15.77,18.22-28.23,7.04-13.1,12.51-24.07,16.25-32.6,2.59-5.89,4.76-11.77,6.48-17.48,3.22-10.68,5.28-19.29,6.12-25.6,.92-6.87,2-16.11,3.23-27.47l.02-.21c.39-3.1,.69-6.38,.91-9.74-.86-.28-2.01-.6-3.51-.94-1.78-.28-5.98-.71-15.22-.71-4.98,0-7.8,.43-9.28,.77-.32,1.27-.79,3.47-1.37,7.11l-.02,.11c-.17,1.05-.35,1.97-.53,2.81v1.12l-.28,1.29c-.43,1.98-.78,3.84-1.06,5.5l-.83,4.88c-2.35,10.51-4.9,21.05-7.57,31.33-2.76,10.64-6.22,21.23-10.28,31.46l-.12,.28c-6.61,15.53-15.23,30.26-25.63,43.8l-.15,.19-3.68,4.6c-1.13,1.45-2.22,2.82-3.26,4.11-.9,1.11-1.79,2.24-2.62,3.35l-.35,.45-2.73,3.32c-.59,.87-1.27,1.7-2.04,2.47l-.93,.93c-.88,.88-1.73,1.79-2.54,2.73-1.2,1.38-2.39,2.66-3.53,3.8l-.65,.61-3.77,3.26c-1.83,1.49-3.11,2.53-3.86,3.11-.6,.47-1.73,1.31-4.52,3.17-3.47,2.37-7.54,4.31-12.08,5.76l-.11,.04c-7.22,2.22-12.33,.35-15.34-1.6-2.42-1.57-6.61-5.33-7.51-12.82-.5-4.13-.87-8.44-1.12-12.8-.22-3.92-.48-7.87-.78-11.74-.48-4.04-.84-8.21-1.09-12.4-.23-3.9-.49-7.95-.79-12.02-.78-7.99-1.45-16.15-2-24.27-.54-8.07-1.05-16.31-1.52-24.51-.93-11.89-1.83-24.05-2.68-36.13-.84-11.88-1.72-23.9-2.63-35.73-.29-1.7-.52-3.51-.68-5.4h-5.73c-25.69,.31-53.07,1.63-81.39,3.92-1.85,.17-3.29,.31-4.42,.43Zm125.43,393.45h0Zm-1.86-143.77h0Zm47.39-58.74h0Zm46.24-18.17l-.1,.1s.06-.06,.1-.1Zm-24.37-10.34l-.04,.03,.04-.03Z"/></g><path class="b" d="M1480.15,1179.88c-.08,9.96-.58,15.95-1.52,17.97-.16,.47-.7,1.17-1.63,2.1l-8.64,8.87-5.6,4.2c-4.51,2.33-10.58,3.89-18.21,4.67-8.09,1.09-17.66,2.14-28.71,3.15s-20.54,1.44-28.47,1.28c-5.76,0-10.27-.7-13.54-2.1-2.65-.62-4.2-1.63-4.67-3.03-.62-1.71-.93-7.74-.93-18.09v-19.49l-.23-92.19c0-10.27-.04-20.58-.12-30.93s-.12-20.66-.12-30.93v-61.62c0-19.76-.04-39.56-.12-59.4s-.12-39.64-.12-59.4v-20.54c.47-5.6,.78-8.71,.93-9.34,1.09-3.42,2.57-6.3,4.43-8.64,2.49-2.8,4.75-4.82,6.77-6.07,4.82-3.11,11.13-5.37,18.91-6.77,10.74-1.87,23.61-3,38.63-3.38s28.28-.58,39.79-.58c2.65,0,4.05,.54,4.2,1.63,0,.47,.04,.93,.12,1.4s.19,.93,.35,1.4c0,2.49,.08,4.43,.23,5.83v42.95l-1.63,317.89c0,2.8-.04,9.18-.12,19.14Z"/><g><path class="i" d="M1689.72,973.55c5.29,1.71,10.46,1.32,15.52-1.17s9.45-5.37,13.19-8.64c4.05-3.42,8.01-7.39,11.9-11.9,.31-.47,.86-1.09,1.63-1.87,3.42-4.2,5.37-6.69,5.83-7.47,7-10.58,12.37-23.11,16.1-37.58,1.71-7.47,3.07-15.09,4.08-22.87s1.98-15.72,2.92-23.81c.47-3.89,1.01-9.76,1.63-17.62s1.87-13.58,3.73-17.15c1.56-2.8,4.36-4.36,8.4-4.67,3.58-.31,9.88-.43,18.91-.35s15.33,.82,18.91,2.22c3.11,1.56,4.67,4.43,4.67,8.64,.16,5.76-.51,13.69-1.98,23.81s-2.76,18.05-3.85,23.81c-2.65,13.07-6.03,27.11-10.15,42.13s-9.06,28.36-14.82,40.03c-4.82,9.34-9.96,17.58-15.4,24.74l-4.67,5.6-1.63,1.63c-6.85,7.47-14.78,12.91-23.81,16.34-2.02,.62-3.58,1.24-4.67,1.87-1.24,.78-2.1,2.26-2.57,4.43-.78,3.27-1.24,11.83-1.4,25.67s-.23,22.64-.23,26.37c-.16,8.87-.31,17.66-.47,26.37s-.23,17.43-.23,26.14c-.31,8.87-.58,17.66-.82,26.37s-.43,17.43-.58,26.14c0,6.22-.31,14.78-.93,25.67-.93,12.91-3.07,20.15-6.42,21.71s-10.85,2.57-22.52,3.03c-5.76,.47-16.77,.7-33.03,.7s-26.72-.7-31.39-2.1c-3.58-.93-6.15-2.96-7.7-6.07-2.33-4.2-3.58-12.1-3.73-23.69s-.23-20.19-.23-25.79c-.31-17.58-.23-35.13,.23-52.63s1.09-35.05,1.87-52.63c.31-5.91,.93-14.16,1.87-24.74,.47-5.13,.58-9.1,.35-11.9s-1.59-6.22-4.08-10.27c-1.4-2.02-3.31-4.55-5.72-7.59s-4.4-5.56-5.95-7.59c-4.82-6.07-9.57-12.45-14.24-19.14-3.73-5.29-6.54-9.34-8.4-12.14-5.91-9.34-10.81-18.05-14.7-26.14s-7.31-17.82-10.27-29.17c-2.96-10.89-5.17-22.45-6.65-34.66s-2.61-24.08-3.38-35.59c-.93-11.2-1.4-19.68-1.4-25.44,0-7.31,.16-11.59,.47-12.84,.78-3.58,2.96-5.91,6.54-7,6.54-2.18,18.91-3.58,37.11-4.2s30.89-.93,38.04-.93c5.76,0,10.04,.23,12.84,.7,3.89,.78,6.38,2.72,7.47,5.83,.93,2.8,1.4,6.89,1.4,12.25v12.95c-.31,17.43-.78,34.78-1.4,52.05-.47,17.74,.31,33.88,2.33,48.43s7.47,27.89,16.34,40.03c4.67,6.07,9.73,9.96,15.17,11.67Z"/><path class="i" d="M1666.96,1234.39c-22.84,0-30.63-1.36-34.77-2.56-6.91-1.86-12.22-6.1-15.39-12.28-3.34-6.18-4.99-15.52-5.17-29.35-.15-11.5-.23-20.2-.23-25.85-.31-17.65-.23-35.51,.24-53.08,.47-17.49,1.1-35.27,1.88-52.85v-.1c.32-6.03,.96-14.5,1.9-25.18,.53-5.79,.44-8.6,.34-9.77h0s-.23-1.37-2.1-4.48c-1.22-1.75-2.91-3.98-5.03-6.64-2.41-3.04-4.44-5.62-6.01-7.66-4.94-6.22-9.87-12.84-14.64-19.69-3.8-5.38-6.61-9.44-8.55-12.36l-.16-.25c-6.14-9.7-11.33-18.92-15.41-27.41-4.21-8.76-7.94-19.32-11.08-31.37-3.09-11.4-5.44-23.64-6.98-36.37-1.49-12.35-2.65-24.51-3.44-36.15-.97-11.61-1.44-20.24-1.44-26.38,0-11.16,.35-13.85,.79-15.67,1.76-7.82,7.18-13.66,14.9-16.07,7.87-2.59,20.75-4.11,40.49-4.79,18.51-.63,31.1-.94,38.47-.94,6.51,0,11.38,.28,14.89,.87l.4,.07c8.27,1.65,14.24,6.61,16.82,13.96l.06,.18c1.37,4.12,2.04,9.42,2.04,16.21v13.18c-.31,17.4-.79,34.97-1.41,52.22-.44,16.95,.3,32.53,2.22,46.32,1.74,12.54,6.31,23.74,13.96,34.25,3.02,3.9,6.02,6.34,8.92,7.25l.1,.03c2.18,.71,4.02,.56,6.15-.49,4.06-2,7.58-4.29,10.48-6.83l.16-.13c3.41-2.89,6.83-6.29,10.17-10.13,.58-.77,1.27-1.57,2.12-2.44,3.29-4.05,4.3-5.4,4.57-5.78l.16-.25c6.18-9.33,11.02-20.65,14.38-33.64,1.6-7,2.89-14.24,3.83-21.52,1-7.7,1.97-15.65,2.9-23.63,.45-3.76,.98-9.52,1.59-17.18,.77-9.77,2.4-16.75,5.11-21.95l.16-.29c3.6-6.48,10.1-10.41,18.3-11.06,4.02-.34,10.57-.47,20.04-.39,10.81,.09,18.23,1.07,23.35,3.08l.53,.21,.51,.25c7.31,3.65,11.52,10.8,11.58,19.63,.16,6.51-.53,14.96-2.11,25.8-1.5,10.24-2.82,18.42-3.94,24.32l-.03,.16c-2.69,13.29-6.17,27.74-10.35,42.96-4.31,15.71-9.58,29.92-15.66,42.25l-.1,.21c-5.13,9.93-10.7,18.87-16.56,26.57l-.35,.43-5.03,6.04-1.85,1.85c-8.06,8.73-17.55,15.23-28.22,19.3-.27,2.84-.61,8.71-.75,20.5-.15,13.72-.23,22.55-.23,26.23v.22l-.47,26.38c-.15,8.59-.23,17.31-.23,25.92v.44c-.32,8.81-.59,17.65-.82,26.27-.23,8.58-.42,17.3-.58,25.92,0,6.42-.32,15.26-.95,26.27v.19c-1.01,13.87-3.36,27.36-13.63,32.14-3.59,1.67-9.61,3.47-27.05,4.18-6.2,.48-17.26,.72-33.77,.72Zm-28.13-26.67l.33,.09c1.23,.37,6.87,1.57,27.8,1.57,15.85,0,26.62-.22,32.02-.66l.51-.03c8.26-.33,12.87-.89,15.33-1.33,.51-1.94,1.18-5.52,1.64-11.73,.6-10.56,.91-18.92,.91-24.86v-.22c.16-8.73,.35-17.56,.59-26.25,.23-8.62,.5-17.45,.81-26.26,0-8.69,.08-17.48,.24-26.14l.46-26.26c0-3.84,.08-12.72,.23-26.4,.22-19.24,.98-25.16,1.71-28.29,1.52-6.89,5.26-10.48,8.14-12.28l.42-.25c1.81-1.04,4.03-1.96,6.77-2.83,7.1-2.75,13.22-7,18.7-12.97l.38-.39,1.23-1.23,4.12-4.95c4.91-6.48,9.63-14.08,14.03-22.59,5.36-10.88,10.04-23.56,13.93-37.7,4.02-14.64,7.36-28.51,9.94-41.22,1.05-5.56,2.31-13.36,3.75-23.21,1.2-8.2,1.83-14.8,1.87-19.69-2.21-.31-5.74-.62-11.2-.67-9.45-.08-14.33,.07-16.84,.24-.53,1.82-1.2,5.03-1.63,10.42-.64,8.1-1.19,14.03-1.68,18.12-.93,8.04-1.92,16.11-2.93,23.93-1.06,8.14-2.5,16.23-4.3,24.05l-.08,.33c-4.04,15.67-9.99,29.52-17.66,41.17-.66,1.05-1.87,2.74-6.69,8.65l-.4,.49-.45,.45c-.11,.11-.21,.22-.3,.31l-.2,.29-.51,.59c-4.27,4.96-8.72,9.4-13.22,13.22-4.52,3.94-9.84,7.43-15.82,10.37-7.92,3.9-16.52,4.54-24.85,1.86-7.89-2.5-15.05-7.86-21.27-15.95l-.18-.25c-10.06-13.76-16.33-29.13-18.63-45.68-2.11-15.16-2.93-32.14-2.45-50.48v-.12c.62-17.08,1.09-34.48,1.4-51.71v-12.84c0-2.75-.14-4.68-.31-5.99-1.73-.16-4.52-.3-8.9-.3-6.99,0-19.64,.31-37.62,.93-19,.65-27.87,2.06-31.92,3.09-.06,1.55-.12,4.15-.12,8.46,0,5.39,.46,13.6,1.36,24.4v.2c.77,11.24,1.89,22.99,3.34,34.93,1.4,11.56,3.52,22.63,6.31,32.89l.03,.13c2.74,10.53,5.92,19.58,9.44,26.91,3.65,7.58,8.33,15.91,13.92,24.75,1.8,2.69,4.53,6.64,8.13,11.74,4.54,6.5,9.17,12.73,13.81,18.57l.12,.16c1.5,1.96,3.47,4.46,5.83,7.43,2.61,3.28,4.64,5.98,6.21,8.25l.37,.56c3.56,5.79,5.49,10.96,5.9,15.78,.3,3.56,.18,8.16-.36,14.07-.91,10.33-1.53,18.49-1.83,24.22-.77,17.42-1.4,35.03-1.86,52.35-.46,17.24-.54,34.76-.23,52.08v.22c0,5.53,.08,14.15,.23,25.62,.19,14.08,2.08,17.64,2.16,17.79l.04,.07Zm101.9-248.94l-.05,.07,.05-.07Z"/></g><path class="b" d="M2252.06,1192.25c-8.56,4.67-18.4,9.26-29.52,13.77s-21.43,7.7-30.93,9.57c-49.79,10.27-98.18,6.54-145.17-11.2-14.47-5.45-28.86-12.06-43.18-19.84s-26.84-16.26-37.58-25.44c-4.36-3.27-7.47-5.99-9.34-8.17l-15.17-16.1c-.62-.62-1.21-1.24-1.75-1.87s-1.05-1.32-1.52-2.1c-11.67-14.94-21.12-32.44-28.36-52.51s-11.55-40.14-12.95-60.22c-1.71-23.34,1.87-47.69,10.74-73.05,8.09-23.34,21.08-45.2,38.98-65.58,.16-.16,.27-.31,.35-.47s.27-.39,.58-.7l5.6-6.3c1.09-1.09,2.68-2.84,4.78-5.25s3.85-4.32,5.25-5.72l10.5-10.74c.16-.16,.35-.39,.58-.7s.58-.7,1.05-1.17l13.07-11.44c3.11-2.65,7-5.6,11.67-8.87,6.07-4.51,13.38-8.99,21.94-13.42s16.42-8.29,23.57-11.55c22.25-9.49,45.2-14.39,68.85-14.7,50.26-.62,94.45,11.13,132.57,35.24,5.29,3.58,10.74,7.47,16.34,11.67,3.73,2.96,6.38,5.06,7.94,6.3l14.7,13.07c2.49,2.33,4.82,4.67,7,7l8.64,8.87,.35,.7c.08,.16,.27,.31,.58,.47l7,8.17c15.4,18.36,28.01,40.77,37.81,67.22,11.51,32.52,14.86,65.27,10.04,98.26-3.11,20.85-8.4,38.82-15.87,53.92-2.02,4.2-3.58,7.39-4.67,9.57-4.05,7.31-7.51,13.26-10.39,17.85s-6.73,9.92-11.55,15.99c-.78,.78-1.32,1.48-1.63,2.1l-3.27,3.73c-.93,1.09-3.15,3.38-6.65,6.89s-5.95,5.87-7.35,7.12l-5.6,4.67c-10.43,8.4-23.11,16.73-38.04,24.97Zm-211.46-107.83c2.02,3.73,3.11,5.68,3.27,5.83l3.5,5.6c2.18,3.58,4.75,7.16,7.7,10.74l7,8.87,1.17,1.17,9.34,9.1c.31,.47,.66,.86,1.05,1.17s.82,.62,1.28,.93c1.09,1.09,3.73,3.11,7.94,6.07,12.14,8.56,24.58,14.39,37.34,17.5,22.25,6.07,44.11,7.62,65.58,4.67,9.34-1.09,19.22-3.35,29.64-6.77,10.74-3.27,20.77-8.48,30.11-15.64l1.4-.93c.47-.31,.93-.7,1.4-1.17,1.4-1.4,3.35-3.19,5.83-5.37s4.43-4.12,5.83-5.83l3.97-4.9c3.27-3.73,7.08-9.18,11.44-16.34,9.96-16.8,17.04-35.94,21.24-57.42s4.75-42.25,1.63-62.32c-.93-5.45-2.02-10.43-3.27-14.94-1.56-5.13-3.11-9.73-4.67-13.77-.93-2.02-1.87-4.08-2.8-6.19s-1.87-4.24-2.8-6.42c-3.27-6.22-5.37-10.27-6.3-12.14-2.49-4.51-4.94-8.83-7.35-12.95s-5.17-8.21-8.29-12.25l-6.3-7.7-5.83-5.6-1.17-1.17c-1.24-.93-2.1-1.63-2.57-2.1-6.85-5.6-14.47-10.5-22.87-14.7s-16.73-7.7-24.97-10.5c-19.45-6.54-40.77-9.73-63.95-9.57-15.4,.31-29.33,4.75-41.78,13.3-1.09,.78-2.88,1.94-5.37,3.5-5.13,3.42-9.57,6.69-13.3,9.8-1.87,1.71-3.46,3.15-4.78,4.32s-2.84,2.68-4.55,4.55l-1.17,1.17-.7,.7-.47,.47-4.2,4.9c-1.4,1.56-2.65,3.27-3.73,5.13-1.71,2.33-4.12,6.15-7.24,11.44-8.71,15.4-15.52,34.19-20.42,56.37s-6.34,43.45-4.32,63.83c1.24,14.78,5.06,29.17,11.44,43.18,2.18,4.98,4.2,9.1,6.07,12.37Z"/><g><path class="i" d="M2644.38,1007.28c2.57,7.08,5.02,14.04,7.35,20.89,.78,2.33,1.56,4.75,2.33,7.24s1.63,4.82,2.57,7c.62,1.87,1.48,4.24,2.57,7.12s2.33,4.71,3.73,5.48c1.87,1.09,3.38-.16,4.55-3.73s1.98-6.15,2.45-7.7c1.24-5.45,2.33-10.58,3.27-15.4,1.87-11.2,3.58-22.13,5.13-32.79s3.27-21.59,5.13-32.79l2.33-16.34c.78-5.45,1.63-10.97,2.57-16.57,2.33-16.49,4.75-33.03,7.24-49.6s4.82-33.18,7-49.83c.47-4.67,1.13-10.11,1.98-16.34s2.14-11.44,3.85-15.64c1.87-4.82,5.37-7.7,10.5-8.64,3.73-.47,9.73-.62,17.97-.47s14.31,.47,18.21,.93c6.07,.93,9.96,3.35,11.67,7.24,1.56,3.73,2.65,9.06,3.27,15.99s1.24,12.56,1.87,16.92c.47,5.76,.97,11.51,1.52,17.27s1.13,11.44,1.75,17.04c1.09,11.51,2.33,22.91,3.73,34.19s2.8,22.52,4.2,33.73c2.8,22.41,5.68,44.77,8.64,67.1s5.91,44.62,8.87,66.87c.62,5.76,1.28,11.44,1.98,17.04s1.36,11.2,1.98,16.8l3.97,35.71c1.71,15.4,2.18,26.84,1.4,34.31-.78,6.69-3.11,10.66-7,11.9-4.2,1.56-9.88,2.29-17.04,2.22s-12.84-.74-17.04-1.98c-5.29-1.4-8.79-4.2-10.5-8.4-1.71-3.58-2.92-8.79-3.62-15.64s-1.21-12.53-1.52-17.04c-.62-5.91-1.17-11.79-1.63-17.62s-.93-11.79-1.4-17.85c-.47-5.76-.89-11.59-1.28-17.5s-.82-11.83-1.28-17.74c-.62-5.91-1.09-11.86-1.4-17.85s-.62-12.02-.93-18.09c-.47-5.91-.86-11.9-1.17-17.97s-.54-12.14-.7-18.21c-.31-6.07-.58-12.14-.82-18.21s-.51-12.14-.82-18.21l-.58-8.75c-.23-3.5-.66-6.26-1.28-8.29-1.24-3.42-2.61-3.23-4.08,.58s-2.37,6.34-2.68,7.59c-2.49,8.09-4.82,18.63-7,31.63s-3.89,23.85-5.13,32.56c-.93,5.6-1.79,11.16-2.57,16.69s-1.56,11.01-2.33,16.45c-.78,5.6-1.59,11.2-2.45,16.8s-1.52,11.2-1.98,16.8l-2.33,16.8-2.33,16.8c-.78,5.6-1.48,11.24-2.1,16.92s-1.32,11.32-2.1,16.92c-.93,5.29-2.1,12.64-3.5,22.06s-3.97,16.07-7.7,19.96c-4.36,4.36-9.73,6.54-16.1,6.54s-11.36-2.65-15.4-7.94c-4.05-5.13-7.9-13.26-11.55-24.39s-6.42-19.96-8.29-26.49c-6.38-21.94-13.77-45.98-22.17-72.12-4.2-13.07-8.25-24.82-12.14-35.24-1.09-2.8-2.14-5.68-3.15-8.64s-1.98-5.83-2.92-8.64c-1.09-2.8-2.18-5.68-3.27-8.64s-2.1-5.83-3.03-8.64c-1.09-2.8-2.18-5.68-3.27-8.64s-2.1-5.91-3.03-8.87c-1.4-3.89-3.42-9.88-6.07-17.97s-4.75-13.69-6.3-16.8c-2.02-3.73-3.42-3.03-4.2,2.1-.78,6.85-.82,17.89-.12,33.14s1.21,25.91,1.52,31.98c.31,8.4,.7,16.77,1.17,25.09s.93,16.69,1.4,25.09c.78,16.96,1.63,33.92,2.57,50.88s1.4,33.84,1.4,50.65c0,5.13-.12,10.81-.35,17.04s-.97,11.67-2.22,16.34c-1.71,5.45-4.32,8.99-7.82,10.62s-7.82,3.15-12.95,4.55c-8.09,2.02-18.36,3.73-30.81,5.13-18.21,1.87-36.18,2.26-53.92,1.17-4.05-.16-6.81-.47-8.29-.93s-2.53-2.8-3.15-7c-.62-3.58-1.09-9.57-1.4-17.97-.47-9.34-.78-18.79-.93-28.36s-.23-19.1-.23-28.59c0-6.38-.08-12.76-.23-19.14s-.23-12.76-.23-19.14c-.31-25.52-.7-51.04-1.17-76.55s-.7-51.11-.7-76.79c-.16-12.29-.31-33.73-.47-64.3s.47-51.39,1.87-62.43c.78-6.38,3.35-11.44,7.7-15.17,3.73-3.11,9.14-5.37,16.22-6.77s13.65-2.33,19.72-2.8c14.78-1.09,30.19-1.63,46.21-1.63,8.4,0,14.39,.39,17.97,1.17,4.36,.93,8.01,3.58,10.97,7.94,1.09,1.71,2.1,3.81,3.03,6.3s1.87,4.75,2.8,6.77c2.18,6.22,3.73,10.97,4.67,14.24,1.4,4.98,2.84,9.88,4.32,14.7s3,9.57,4.55,14.24c1.4,4.98,2.88,9.88,4.43,14.7s3.11,9.57,4.67,14.24c2.02,7,4.32,14.16,6.89,21.47s5.02,14.39,7.35,21.24l19.84,55.78c2.33,7,4.78,14.04,7.35,21.12Z"/><path class="i" d="M2490.25,1234.05c-6.8,0-13.57-.2-20.26-.61-5.35-.21-8.77-.66-11.42-1.5-9.54-3.01-11.19-13.33-11.73-16.94-.71-4.17-1.21-10.52-1.55-19.41-.47-9.4-.79-19.05-.94-28.69-.16-9.58-.23-19.27-.23-28.79,0-6.26-.08-12.59-.23-18.83-.16-6.42-.24-12.93-.24-19.37-.31-25.32-.7-51.03-1.17-76.4-.47-25.45-.7-51.33-.7-76.94-.15-12.24-.31-33.88-.47-64.32-.16-31.41,.48-52.37,1.97-64.07,1.16-9.49,5.19-17.28,11.97-23.09l.13-.11c5.42-4.51,12.55-7.6,21.8-9.43,7.53-1.49,14.66-2.5,21.19-3,15.05-1.11,30.91-1.67,47.17-1.67,9.51,0,16.07,.46,20.63,1.45,7.45,1.6,13.91,6.14,18.66,13.13l.2,.31c1.57,2.47,2.94,5.29,4.19,8.62,.82,2.19,1.64,4.18,2.45,5.92l.25,.54,.2,.57c2.28,6.52,3.88,11.4,4.89,14.93,1.38,4.91,2.81,9.76,4.25,14.48,1.44,4.7,2.94,9.39,4.46,13.95l.17,.57c1.35,4.81,2.8,9.6,4.3,14.25,1.54,4.79,3.1,9.54,4.63,14.12l.15,.48c1.95,6.75,4.19,13.75,6.67,20.8,2.55,7.28,5.03,14.43,7.36,21.27l19.89,55.94c2.29,6.87,4.73,13.87,7.24,20.81,2,5.53,3.96,11.05,5.84,16.47,1.43-8.8,2.77-17.49,4-25.91,1.56-10.65,3.29-21.72,5.15-32.9l2.31-16.19c.78-5.46,1.65-11.08,2.59-16.7,2.32-16.42,4.76-33.09,7.23-49.55,2.46-16.35,4.79-32.98,6.94-49.41,.48-4.76,1.16-10.35,2.02-16.6,1-7.29,2.51-13.36,4.62-18.56,3.45-8.82,10.51-14.61,19.88-16.31l.69-.1c4.37-.55,10.83-.73,19.76-.56,8.75,.17,15.11,.5,19.46,1.02l.41,.06c13.13,2.02,18.78,9.03,21.21,14.56l.1,.23c2.07,4.96,3.44,11.4,4.18,19.68,.6,6.68,1.2,12.16,1.79,16.27l.08,.76c.46,5.66,.96,11.42,1.5,17.1,.54,5.66,1.12,11.33,1.73,16.83l.02,.2c1.07,11.35,2.32,22.73,3.69,33.83,1.4,11.28,2.8,22.52,4.2,33.72,2.79,22.29,5.69,44.84,8.62,67.01,2.96,22.33,5.91,44.61,8.87,66.86l.04,.3c.61,5.67,1.27,11.33,1.96,16.83,.7,5.62,1.38,11.33,2,16.97l3.97,35.71c1.83,16.45,2.29,28.55,1.41,36.98l-.02,.15c-.78,6.68-3.8,18.4-15.31,22.27-5.66,2.05-12.62,3.01-21.28,2.91-8.31-.09-14.94-.89-20.28-2.45-11.17-3.02-16.25-9.94-18.56-15.37-2.27-4.89-3.79-11.25-4.62-19.44-.7-6.84-1.22-12.63-1.54-17.22-.62-5.91-1.17-11.87-1.64-17.71-.47-5.85-.94-11.81-1.4-17.89-.46-5.73-.9-11.68-1.29-17.64-.38-5.79-.8-11.65-1.26-17.42-.63-6.05-1.12-12.22-1.44-18.35-.31-5.94-.62-11.91-.93-17.93-.23-2.9-.44-5.84-.63-8.8-.48,3.07-.93,6.13-1.36,9.15-.78,5.53-1.56,11.02-2.34,16.48-.78,5.58-1.61,11.29-2.47,16.93-.81,5.29-1.44,10.66-1.88,15.95l-.08,.68-4.67,33.61c-.76,5.46-1.45,11.03-2.06,16.56-.63,5.77-1.35,11.59-2.15,17.28l-.07,.45c-.91,5.16-2.07,12.46-3.45,21.72-1.81,12.15-5.42,20.91-11.05,26.77l-.18,.18c-6.67,6.67-15.3,10.2-24.94,10.2-10.12,0-18.86-4.42-25.28-12.77-4.98-6.35-9.41-15.56-13.55-28.15-3.69-11.23-6.53-20.3-8.43-26.96-6.3-21.66-13.73-45.82-22.05-71.73-4.11-12.8-8.12-24.44-11.92-34.62-1.14-2.92-2.24-5.96-3.3-9.04-.99-2.89-1.94-5.7-2.85-8.44-1.07-2.76-2.16-5.63-3.23-8.56-.14-.38-.28-.76-.42-1.15,.04,.9,.09,1.73,.13,2.49v.18c.31,8.28,.7,16.64,1.16,24.85,.47,8.33,.93,16.69,1.4,25.1v.12c.78,16.82,1.64,33.9,2.57,50.77,.94,17.11,1.42,34.38,1.42,51.33,0,5.27-.12,11.16-.36,17.51-.27,7.12-1.15,13.55-2.63,19.09l-.15,.53c-2.8,8.91-7.66,15.03-14.46,18.2-4.18,1.95-9.08,3.68-14.95,5.28l-.26,.07c-8.59,2.15-19.5,3.97-32.44,5.43h-.12c-11.88,1.23-23.78,1.84-35.55,1.84Zm-19.09-25.59h.22c16.96,1.05,34.39,.68,51.82-1.11,11.75-1.32,21.49-2.94,28.98-4.8,4.23-1.16,7.79-2.39,10.56-3.66,.21-.26,.76-1.06,1.37-2.91,.96-3.7,1.54-8.17,1.73-13.31,.23-6.04,.34-11.61,.34-16.57,0-16.5-.46-33.31-1.38-49.96-.93-16.92-1.8-34.05-2.57-50.93-.47-8.38-.93-16.72-1.4-25.03-.47-8.34-.86-16.83-1.17-25.24-.31-6.11-.82-16.86-1.52-31.95-.74-16.06-.68-27.55,.18-35.13l.06-.46c1.64-10.85,7.46-14.09,12.06-14.89,2.96-.52,10.4-.7,15.5,8.71l.19,.36c1.87,3.75,4.1,9.63,7,18.51,2.59,7.93,4.59,13.86,5.95,17.62l.16,.47c.87,2.76,1.83,5.55,2.84,8.31,1.06,2.89,2.14,5.72,3.19,8.43l.21,.58c.89,2.67,1.87,5.45,2.9,8.27,1.06,2.89,2.14,5.72,3.19,8.43l.21,.58c.92,2.77,1.89,5.62,2.89,8.54,.95,2.78,1.95,5.52,2.97,8.15l.06,.16c3.94,10.55,8.08,22.59,12.33,35.79,8.4,26.13,15.9,50.51,22.28,72.46,1.83,6.41,4.57,15.16,8.16,26.08,3.96,12.06,7.35,17.84,9.5,20.56l.11,.14c1.93,2.52,3.52,3.03,5.47,3.03,3.02,0,5.17-.83,7.15-2.76,.74-.82,2.93-3.92,4.29-13.07,1.39-9.35,2.57-16.8,3.51-22.16,.75-5.38,1.43-10.88,2.02-16.34,.63-5.77,1.35-11.59,2.15-17.28l4.62-33.27c.49-5.75,1.18-11.57,2.06-17.31,.84-5.52,1.66-11.12,2.43-16.64,.78-5.49,1.56-10.96,2.34-16.48,.78-5.55,1.65-11.22,2.59-16.85,1.25-8.74,2.99-19.74,5.16-32.72,2.23-13.33,4.69-24.42,7.3-32.96,.35-1.33,1.06-3.53,3.06-8.7,3.74-9.65,10.35-11.04,14.03-10.99,2.89,.03,9.99,1.13,13.45,10.66l.2,.59c.92,2.98,1.51,6.62,1.81,11.13l.59,8.94c.31,6.11,.59,12.28,.82,18.36,.23,5.97,.5,12.05,.81,18.05v.32c.16,5.93,.4,11.95,.7,17.89,.3,5.92,.69,11.85,1.15,17.63l.02,.34c.31,6.07,.62,12.09,.93,18.08,.3,5.74,.75,11.53,1.35,17.19l.03,.33c.47,5.93,.9,11.95,1.3,17.9,.38,5.83,.81,11.66,1.27,17.32,.47,6.11,.94,12.05,1.4,17.87,.46,5.71,1,11.53,1.6,17.31l.04,.45c.3,4.35,.8,9.94,1.48,16.63,.72,7.05,1.85,10.24,2.46,11.52l.3,.68c.21,.51,1.93,.98,2.13,1.03l.35,.1c2.11,.63,6.19,1.39,13.62,1.47,5.51,.06,8.99-.44,11.13-1,.12-.47,.24-1.13,.35-2,.46-4.53,.59-13.67-1.4-31.55l-3.97-35.71c-.61-5.53-1.28-11.13-1.96-16.63-.7-5.59-1.37-11.33-1.99-17.09-2.95-22.2-5.9-44.44-8.85-66.73-2.94-22.23-5.85-44.84-8.65-67.19-1.4-11.21-2.8-22.45-4.2-33.74-1.4-11.31-2.67-22.9-3.76-34.45-.62-5.61-1.22-11.38-1.76-17.14-.54-5.67-1.04-11.41-1.5-17.06-.63-4.49-1.27-10.27-1.89-17.19-.55-6.15-1.41-9.6-2.02-11.4-.39-.15-1.08-.37-2.18-.55-3.48-.4-9.1-.68-16.73-.82-8.91-.17-13.47,.07-15.77,.32-.31,.07-.48,.15-.53,.18h0s-.12,.2-.28,.61l-.08,.2c-1.31,3.22-2.33,7.46-3.04,12.62-.83,6.04-1.48,11.38-1.93,15.88l-.04,.38c-2.18,16.65-4.55,33.5-7.04,50.07-2.47,16.44-4.9,33.09-7.22,49.49l-.05,.3c-.91,5.49-1.76,10.96-2.52,16.28l-2.38,16.63c-1.84,11.06-3.56,22.01-5.1,32.54-1.56,10.7-3.3,21.81-5.17,33.04l-.06,.32c-.96,4.93-2.08,10.25-3.35,15.81l-.21,.81c-.5,1.67-1.33,4.28-2.54,7.99-1.97,6.03-5.36,10-10.09,11.8-4.07,1.55-8.63,1.15-12.54-1.08-4.05-2.29-7.07-6.19-9.24-11.92-1.05-2.78-1.91-5.16-2.57-7.1-1.02-2.42-1.96-5.01-2.8-7.71-.75-2.39-1.51-4.74-2.26-7.01-2.27-6.66-4.72-13.61-7.24-20.58-2.58-7.11-5.07-14.28-7.42-21.31l-19.85-55.82c-2.31-6.79-4.78-13.9-7.31-21.13-2.6-7.41-4.97-14.78-7.03-21.9-1.53-4.58-3.08-9.33-4.63-14.11-1.57-4.85-3.08-9.86-4.49-14.87-1.55-4.66-3.08-9.45-4.55-14.25-1.5-4.9-2.98-9.94-4.4-14.98-.82-2.88-2.25-7.25-4.24-12.95-.97-2.15-1.94-4.51-2.9-7.05-.72-1.93-1.36-3.13-1.78-3.83-1.56-2.24-2.7-2.48-3.14-2.57-1.55-.34-5.56-.89-15.35-.89-15.65,0-30.89,.54-45.29,1.6-5.51,.42-11.65,1.3-18.21,2.6-6.41,1.27-9.36,3.06-10.58,4.06-1.31,1.14-2.85,3-3.36,7.13-1.33,10.52-1.93,30.97-1.78,60.86,.15,30.44,.31,52.05,.47,64.21v.16c0,25.48,.24,51.24,.7,76.56,.47,25.45,.86,51.23,1.17,76.63v.15c0,6.26,.08,12.59,.23,18.83,.16,6.44,.24,12.99,.24,19.44,0,9.39,.08,18.94,.23,28.39,.15,9.39,.46,18.79,.92,27.94v.16c.26,6.96,.6,11.25,.9,13.88Zm200.16-162.39h0Z"/></g><path class="b" d="M3008.57,1179.88c-.08,9.96-.58,15.95-1.52,17.97-.16,.47-.7,1.17-1.63,2.1l-8.64,8.87-5.6,4.2c-4.51,2.33-10.58,3.89-18.21,4.67-8.09,1.09-17.66,2.14-28.71,3.15s-20.54,1.44-28.47,1.28c-5.76,0-10.27-.7-13.54-2.1-2.65-.62-4.2-1.63-4.67-3.03-.62-1.71-.93-7.74-.93-18.09v-19.49l-.23-92.19c0-10.27-.04-20.58-.12-30.93s-.12-20.66-.12-30.93v-61.62c0-19.76-.04-39.56-.12-59.4s-.12-39.64-.12-59.4v-20.54c.47-5.6,.78-8.71,.93-9.34,1.09-3.42,2.57-6.3,4.43-8.64,2.49-2.8,4.75-4.82,6.77-6.07,4.82-3.11,11.13-5.37,18.91-6.77,10.74-1.87,23.61-3,38.63-3.38s28.28-.58,39.79-.58c2.65,0,4.05,.54,4.2,1.63,0,.47,.04,.93,.12,1.4s.19,.93,.35,1.4c0,2.49,.08,4.43,.23,5.83v42.95l-1.63,317.89c0,2.8-.04,9.18-.12,19.14Z"/></g></svg>